999
"DXF R12 Output" (www.mydxf.blogspot.com)
 0 
SECTION
 2 
HEADER
 9 
$ACADVER
 1 
AC1009
 9 
$EXTMIN
 10 
 0 
 20 
 0 
 9 
$EXTMAX
 10 
 8.5 
 20 
 11 
 0 
ENDSEC
 0 
SECTION
 2 
ENTITIES
0
LINE
8
0
10
172.160983
20
77.381706
11
172.047116
21
77.961392
0
LINE
8
0
10
172.047116
20
77.961392
11
171.746921
21
78.375454
0
LINE
8
0
10
171.746921
20
78.375454
11
171.322507
21
78.623891
0
LINE
8
0
10
171.322507
20
78.623891
11
170.835985
21
78.706703
0
LINE
8
0
10
170.835985
20
78.706703
11
170.349462
21
78.623891
0
LINE
8
0
10
170.349462
20
78.623891
11
169.925048
21
78.375454
0
LINE
8
0
10
169.925048
20
78.375454
11
169.624853
21
77.961392
0
LINE
8
0
10
169.624853
20
77.961392
11
169.510986
21
77.381706
0
LINE
8
0
10
169.510986
20
77.381706
11
169.615111
21
76.865957
0
LINE
8
0
10
169.615111
20
76.865957
11
169.899069
21
76.444792
0
LINE
8
0
10
169.899069
20
76.444792
11
170.320234
21
76.160834
0
LINE
8
0
10
170.320234
20
76.160834
11
170.835983
21
76.056709
0
LINE
8
0
10
170.835983
20
76.056709
11
171.351733
21
76.160834
0
LINE
8
0
10
171.351733
20
76.160834
11
171.772900
21
76.444792
0
LINE
8
0
10
171.772900
20
76.444792
11
172.056858
21
76.865957
0
LINE
8
0
10
172.056858
20
76.865957
11
172.160983
21
77.381706
0
LINE
8
0
10
172.160983
20
77.381706
11
172.160983
21
77.381706
0
LINE
8
0
10
172.160983
20
105.348886
11
172.047116
21
105.928572
0
LINE
8
0
10
172.047116
20
105.928572
11
171.746921
21
106.342634
0
LINE
8
0
10
171.746921
20
106.342634
11
171.322507
21
106.591071
0
LINE
8
0
10
171.322507
20
106.591071
11
170.835985
21
106.673883
0
LINE
8
0
10
170.835985
20
106.673883
11
170.349462
21
106.591071
0
LINE
8
0
10
170.349462
20
106.591071
11
169.925048
21
106.342634
0
LINE
8
0
10
169.925048
20
106.342634
11
169.624853
21
105.928572
0
LINE
8
0
10
169.624853
20
105.928572
11
169.510986
21
105.348886
0
LINE
8
0
10
169.510986
20
105.348886
11
169.615111
21
104.833137
0
LINE
8
0
10
169.615111
20
104.833137
11
169.899069
21
104.411971
0
LINE
8
0
10
169.899069
20
104.411971
11
170.320234
21
104.128014
0
LINE
8
0
10
170.320234
20
104.128014
11
170.835983
21
104.023889
0
LINE
8
0
10
170.835983
20
104.023889
11
171.351733
21
104.128014
0
LINE
8
0
10
171.351733
20
104.128014
11
171.772900
21
104.411971
0
LINE
8
0
10
171.772900
20
104.411971
11
172.056858
21
104.833137
0
LINE
8
0
10
172.056858
20
104.833137
11
172.160983
21
105.348886
0
LINE
8
0
10
172.160983
20
105.348886
11
172.160983
21
105.348886
0
LINE
8
0
10
165.744459
20
122.009603
11
165.630592
21
122.589290
0
LINE
8
0
10
165.630592
20
122.589290
11
165.330397
21
123.003351
0
LINE
8
0
10
165.330397
20
123.003351
11
164.905983
21
123.251788
0
LINE
8
0
10
164.905983
20
123.251788
11
164.419460
21
123.334601
0
LINE
8
0
10
164.419460
20
123.334601
11
163.932938
21
123.251788
0
LINE
8
0
10
163.932938
20
123.251788
11
163.508524
21
123.003351
0
LINE
8
0
10
163.508524
20
123.003351
11
163.208329
21
122.589290
0
LINE
8
0
10
163.208329
20
122.589290
11
163.094462
21
122.009603
0
LINE
8
0
10
163.094462
20
122.009603
11
163.198587
21
121.493855
0
LINE
8
0
10
163.198587
20
121.493855
11
163.482545
21
121.072689
0
LINE
8
0
10
163.482545
20
121.072689
11
163.903712
21
120.788731
0
LINE
8
0
10
163.903712
20
120.788731
11
164.419462
21
120.684606
0
LINE
8
0
10
164.419462
20
120.684606
11
164.935211
21
120.788731
0
LINE
8
0
10
164.935211
20
120.788731
11
165.356376
21
121.072689
0
LINE
8
0
10
165.356376
20
121.072689
11
165.640334
21
121.493855
0
LINE
8
0
10
165.640334
20
121.493855
11
165.744459
21
122.009603
0
LINE
8
0
10
165.744459
20
122.009603
11
165.744459
21
122.009603
0
LINE
8
0
10
185.888708
20
91.365296
11
185.789557
21
95.286535
0
LINE
8
0
10
185.789557
20
95.286535
11
185.495296
21
99.156298
0
LINE
8
0
10
185.495296
20
99.156298
11
185.010714
21
102.969796
0
LINE
8
0
10
185.010714
20
102.969796
11
184.340597
21
106.722241
0
LINE
8
0
10
184.340597
20
106.722241
11
183.489733
21
110.408847
0
LINE
8
0
10
183.489733
20
110.408847
11
182.462911
21
114.024824
0
LINE
8
0
10
182.462911
20
114.024824
11
181.264918
21
117.565386
0
LINE
8
0
10
181.264918
20
117.565386
11
179.900542
21
121.025745
0
LINE
8
0
10
179.900542
20
121.025745
11
178.374570
21
124.401112
0
LINE
8
0
10
178.374570
20
124.401112
11
176.691791
21
127.686700
0
LINE
8
0
10
176.691791
20
127.686700
11
174.856992
21
130.877722
0
LINE
8
0
10
174.856992
20
130.877722
11
172.874961
21
133.969389
0
LINE
8
0
10
172.874961
20
133.969389
11
170.750485
21
136.956914
0
LINE
8
0
10
170.750485
20
136.956914
11
168.488354
21
139.835509
0
LINE
8
0
10
168.488354
20
139.835509
11
166.093353
21
142.600387
0
LINE
8
0
10
166.093353
20
142.600387
11
163.570272
21
145.246759
0
LINE
8
0
10
163.570272
20
145.246759
11
160.923898
21
147.769838
0
LINE
8
0
10
160.923898
20
147.769838
11
158.159018
21
150.164836
0
LINE
8
0
10
158.159018
20
150.164836
11
155.280421
21
152.426965
0
LINE
8
0
10
155.280421
20
152.426965
11
152.292894
21
154.551437
0
LINE
8
0
10
152.292894
20
154.551437
11
149.201225
21
156.533466
0
LINE
8
0
10
149.201225
20
156.533466
11
146.010202
21
158.368263
0
LINE
8
0
10
146.010202
20
158.368263
11
142.724613
21
160.051040
0
LINE
8
0
10
142.724613
20
160.051040
11
139.349245
21
161.577009
0
LINE
8
0
10
139.349245
20
161.577009
11
135.888886
21
162.941383
0
LINE
8
0
10
135.888886
20
162.941383
11
132.348324
21
164.139374
0
LINE
8
0
10
132.348324
20
164.139374
11
128.732347
21
165.166195
0
LINE
8
0
10
128.732347
20
165.166195
11
125.045742
21
166.017057
0
LINE
8
0
10
125.045742
20
166.017057
11
121.293297
21
166.687173
0
LINE
8
0
10
121.293297
20
166.687173
11
117.479801
21
167.171755
0
LINE
8
0
10
117.479801
20
167.171755
11
113.610041
21
167.466015
0
LINE
8
0
10
113.610041
20
167.466015
11
109.688804
21
167.565166
0
LINE
8
0
10
109.688804
20
167.565166
11
105.767567
21
167.466015
0
LINE
8
0
10
105.767567
20
167.466015
11
101.897807
21
167.171755
0
LINE
8
0
10
101.897807
20
167.171755
11
98.084311
21
166.687173
0
LINE
8
0
10
98.084311
20
166.687173
11
94.331866
21
166.017057
0
LINE
8
0
10
94.331866
20
166.017057
11
90.645261
21
165.166195
0
LINE
8
0
10
90.645261
20
165.166195
11
87.029284
21
164.139374
0
LINE
8
0
10
87.029284
20
164.139374
11
83.488722
21
162.941383
0
LINE
8
0
10
83.488722
20
162.941383
11
80.028363
21
161.577009
0
LINE
8
0
10
80.028363
20
161.577009
11
76.652995
21
160.051040
0
LINE
8
0
10
76.652995
20
160.051040
11
73.367406
21
158.368263
0
LINE
8
0
10
73.367406
20
158.368263
11
70.176383
21
156.533466
0
LINE
8
0
10
70.176383
20
156.533466
11
67.084714
21
154.551437
0
LINE
8
0
10
67.084714
20
154.551437
11
64.097187
21
152.426965
0
LINE
8
0
10
64.097187
20
152.426965
11
61.218590
21
150.164836
0
LINE
8
0
10
61.218590
20
150.164836
11
58.453710
21
147.769838
0
LINE
8
0
10
58.453710
20
147.769838
11
55.807336
21
145.246759
0
LINE
8
0
10
55.807336
20
145.246759
11
53.284255
21
142.600387
0
LINE
8
0
10
53.284255
20
142.600387
11
50.889254
21
139.835509
0
LINE
8
0
10
50.889254
20
139.835509
11
48.627123
21
136.956914
0
LINE
8
0
10
48.627123
20
136.956914
11
46.502647
21
133.969389
0
LINE
8
0
10
46.502647
20
133.969389
11
44.520616
21
130.877722
0
LINE
8
0
10
44.520616
20
130.877722
11
42.685817
21
127.686700
0
LINE
8
0
10
42.685817
20
127.686700
11
41.003038
21
124.401112
0
LINE
8
0
10
41.003038
20
124.401112
11
39.477066
21
121.025745
0
LINE
8
0
10
39.477066
20
121.025745
11
38.112690
21
117.565386
0
LINE
8
0
10
38.112690
20
117.565386
11
36.914697
21
114.024824
0
LINE
8
0
10
36.914697
20
114.024824
11
35.887875
21
110.408847
0
LINE
8
0
10
35.887875
20
110.408847
11
35.037011
21
106.722241
0
LINE
8
0
10
35.037011
20
106.722241
11
34.366894
21
102.969796
0
LINE
8
0
10
34.366894
20
102.969796
11
33.882312
21
99.156298
0
LINE
8
0
10
33.882312
20
99.156298
11
33.588051
21
95.286535
0
LINE
8
0
10
33.588051
20
95.286535
11
33.488900
21
91.365296
0
LINE
8
0
10
33.488900
20
91.365296
11
33.588051
21
87.444057
0
LINE
8
0
10
33.588051
20
87.444057
11
33.882312
21
83.574294
0
LINE
8
0
10
33.882312
20
83.574294
11
34.366894
21
79.760796
0
LINE
8
0
10
34.366894
20
79.760796
11
35.037011
21
76.008350
0
LINE
8
0
10
35.037011
20
76.008350
11
35.887875
21
72.321745
0
LINE
8
0
10
35.887875
20
72.321745
11
36.914697
21
68.705767
0
LINE
8
0
10
36.914697
20
68.705767
11
38.112690
21
65.165205
0
LINE
8
0
10
38.112690
20
65.165205
11
39.477066
21
61.704847
0
LINE
8
0
10
39.477066
20
61.704847
11
41.003038
21
58.329479
0
LINE
8
0
10
41.003038
20
58.329479
11
42.685817
21
55.043891
0
LINE
8
0
10
42.685817
20
55.043891
11
44.520616
21
51.852869
0
LINE
8
0
10
44.520616
20
51.852869
11
46.502647
21
48.761201
0
LINE
8
0
10
46.502647
20
48.761201
11
48.627123
21
45.773676
0
LINE
8
0
10
48.627123
20
45.773676
11
50.889254
21
42.895081
0
LINE
8
0
10
50.889254
20
42.895081
11
53.284255
21
40.130203
0
LINE
8
0
10
53.284255
20
40.130203
11
55.807336
21
37.483831
0
LINE
8
0
10
55.807336
20
37.483831
11
58.453710
21
34.960752
0
LINE
8
0
10
58.453710
20
34.960752
11
61.218590
21
32.565753
0
LINE
8
0
10
61.218590
20
32.565753
11
64.097187
21
30.303624
0
LINE
8
0
10
64.097187
20
30.303624
11
67.084714
21
28.179151
0
LINE
8
0
10
67.084714
20
28.179151
11
70.176383
21
26.197122
0
LINE
8
0
10
70.176383
20
26.197122
11
73.367406
21
24.362325
0
LINE
8
0
10
73.367406
20
24.362325
11
76.652995
21
22.679548
0
LINE
8
0
10
76.652995
20
22.679548
11
80.028363
21
21.153579
0
LINE
8
0
10
80.028363
20
21.153579
11
83.488722
21
19.789204
0
LINE
8
0
10
83.488722
20
19.789204
11
87.029284
21
18.591213
0
LINE
8
0
10
87.029284
20
18.591213
11
90.645261
21
17.564392
0
LINE
8
0
10
90.645261
20
17.564392
11
94.331866
21
16.713530
0
LINE
8
0
10
94.331866
20
16.713530
11
98.084311
21
16.043414
0
LINE
8
0
10
98.084311
20
16.043414
11
101.897807
21
15.558832
0
LINE
8
0
10
101.897807
20
15.558832
11
105.767567
21
15.264572
0
LINE
8
0
10
105.767567
20
15.264572
11
109.688804
21
15.165421
0
LINE
8
0
10
109.688804
20
15.165421
11
113.610041
21
15.264572
0
LINE
8
0
10
113.610041
20
15.264572
11
117.479801
21
15.558832
0
LINE
8
0
10
117.479801
20
15.558832
11
121.293297
21
16.043414
0
LINE
8
0
10
121.293297
20
16.043414
11
125.045742
21
16.713530
0
LINE
8
0
10
125.045742
20
16.713530
11
128.732347
21
17.564392
0
LINE
8
0
10
128.732347
20
17.564392
11
132.348324
21
18.591213
0
LINE
8
0
10
132.348324
20
18.591213
11
135.888886
21
19.789204
0
LINE
8
0
10
135.888886
20
19.789204
11
139.349245
21
21.153579
0
LINE
8
0
10
139.349245
20
21.153579
11
142.724613
21
22.679548
0
LINE
8
0
10
142.724613
20
22.679548
11
146.010202
21
24.362325
0
LINE
8
0
10
146.010202
20
24.362325
11
149.201225
21
26.197122
0
LINE
8
0
10
149.201225
20
26.197122
11
152.292894
21
28.179151
0
LINE
8
0
10
152.292894
20
28.179151
11
155.280421
21
30.303624
0
LINE
8
0
10
155.280421
20
30.303624
11
158.159018
21
32.565753
0
LINE
8
0
10
158.159018
20
32.565753
11
160.923898
21
34.960752
0
LINE
8
0
10
160.923898
20
34.960752
11
163.570272
21
37.483831
0
LINE
8
0
10
163.570272
20
37.483831
11
166.093353
21
40.130203
0
LINE
8
0
10
166.093353
20
40.130203
11
168.488354
21
42.895081
0
LINE
8
0
10
168.488354
20
42.895081
11
170.750485
21
45.773676
0
LINE
8
0
10
170.750485
20
45.773676
11
172.874961
21
48.761201
0
LINE
8
0
10
172.874961
20
48.761201
11
174.856992
21
51.852869
0
LINE
8
0
10
174.856992
20
51.852869
11
176.691791
21
55.043891
0
LINE
8
0
10
176.691791
20
55.043891
11
178.374570
21
58.329479
0
LINE
8
0
10
178.374570
20
58.329479
11
179.900542
21
61.704847
0
LINE
8
0
10
179.900542
20
61.704847
11
181.264918
21
65.165205
0
LINE
8
0
10
181.264918
20
65.165205
11
182.462911
21
68.705767
0
LINE
8
0
10
182.462911
20
68.705767
11
183.489733
21
72.321745
0
LINE
8
0
10
183.489733
20
72.321745
11
184.340597
21
76.008350
0
LINE
8
0
10
184.340597
20
76.008350
11
185.010714
21
79.760796
0
LINE
8
0
10
185.010714
20
79.760796
11
185.495296
21
83.574294
0
LINE
8
0
10
185.495296
20
83.574294
11
185.789557
21
87.444057
0
LINE
8
0
10
185.789557
20
87.444057
11
185.888708
21
91.365296
0
LINE
8
0
10
185.888708
20
91.365296
11
185.888708
21
91.365296
0
LINE
8
0
10
173.623725
20
95.175291
11
173.509858
21
95.754978
0
LINE
8
0
10
173.509858
20
95.754978
11
173.209663
21
96.169039
0
LINE
8
0
10
173.209663
20
96.169039
11
172.785249
21
96.417476
0
LINE
8
0
10
172.785249
20
96.417476
11
172.298726
21
96.500288
0
LINE
8
0
10
172.298726
20
96.500288
11
171.812203
21
96.417476
0
LINE
8
0
10
171.812203
20
96.417476
11
171.387790
21
96.169039
0
LINE
8
0
10
171.387790
20
96.169039
11
171.087595
21
95.754978
0
LINE
8
0
10
171.087595
20
95.754978
11
170.973728
21
95.175291
0
LINE
8
0
10
170.973728
20
95.175291
11
171.077853
21
94.659542
0
LINE
8
0
10
171.077853
20
94.659542
11
171.361811
21
94.238377
0
LINE
8
0
10
171.361811
20
94.238377
11
171.782977
21
93.954419
0
LINE
8
0
10
171.782977
20
93.954419
11
172.298728
21
93.850294
0
LINE
8
0
10
172.298728
20
93.850294
11
172.814476
21
93.954419
0
LINE
8
0
10
172.814476
20
93.954419
11
173.235642
21
94.238377
0
LINE
8
0
10
173.235642
20
94.238377
11
173.519600
21
94.659542
0
LINE
8
0
10
173.519600
20
94.659542
11
173.623725
21
95.175291
0
LINE
8
0
10
173.623725
20
95.175291
11
173.623725
21
95.175291
0
LINE
8
0
10
173.623725
20
87.555301
11
173.509858
21
88.134987
0
LINE
8
0
10
173.509858
20
88.134987
11
173.209663
21
88.549049
0
LINE
8
0
10
173.209663
20
88.549049
11
172.785249
21
88.797486
0
LINE
8
0
10
172.785249
20
88.797486
11
172.298726
21
88.880298
0
LINE
8
0
10
172.298726
20
88.880298
11
171.812203
21
88.797486
0
LINE
8
0
10
171.812203
20
88.797486
11
171.387790
21
88.549049
0
LINE
8
0
10
171.387790
20
88.549049
11
171.087595
21
88.134987
0
LINE
8
0
10
171.087595
20
88.134987
11
170.973728
21
87.555301
0
LINE
8
0
10
170.973728
20
87.555301
11
171.077853
21
87.039552
0
LINE
8
0
10
171.077853
20
87.039552
11
171.361811
21
86.618386
0
LINE
8
0
10
171.361811
20
86.618386
11
171.782977
21
86.334428
0
LINE
8
0
10
171.782977
20
86.334428
11
172.298728
21
86.230304
0
LINE
8
0
10
172.298728
20
86.230304
11
172.814476
21
86.334428
0
LINE
8
0
10
172.814476
20
86.334428
11
173.235642
21
86.618386
0
LINE
8
0
10
173.235642
20
86.618386
11
173.519600
21
87.039552
0
LINE
8
0
10
173.519600
20
87.039552
11
173.623725
21
87.555301
0
LINE
8
0
10
173.623725
20
87.555301
11
173.623725
21
87.555301
0
LINE
8
0
10
98.332267
20
29.934868
11
98.218400
21
30.514557
0
LINE
8
0
10
98.218400
20
30.514557
11
97.918205
21
30.928621
0
LINE
8
0
10
97.918205
20
30.928621
11
97.493791
21
31.177060
0
LINE
8
0
10
97.493791
20
31.177060
11
97.007268
21
31.259873
0
LINE
8
0
10
97.007268
20
31.259873
11
96.520745
21
31.177060
0
LINE
8
0
10
96.520745
20
31.177060
11
96.096332
21
30.928621
0
LINE
8
0
10
96.096332
20
30.928621
11
95.796137
21
30.514557
0
LINE
8
0
10
95.796137
20
30.514557
11
95.682269
21
29.934868
0
LINE
8
0
10
95.682269
20
29.934868
11
95.786394
21
29.419114
0
LINE
8
0
10
95.786394
20
29.419114
11
96.070353
21
28.997946
0
LINE
8
0
10
96.070353
20
28.997946
11
96.491519
21
28.713987
0
LINE
8
0
10
96.491519
20
28.713987
11
97.007269
21
28.609862
0
LINE
8
0
10
97.007269
20
28.609862
11
97.523018
21
28.713987
0
LINE
8
0
10
97.523018
20
28.713987
11
97.944184
21
28.997946
0
LINE
8
0
10
97.944184
20
28.997946
11
98.228142
21
29.419114
0
LINE
8
0
10
98.228142
20
29.419114
11
98.332267
21
29.934868
0
LINE
8
0
10
98.332267
20
29.934868
11
98.332267
21
29.934868
0
LINE
8
0
10
116.152908
20
28.850421
11
116.038525
21
29.429373
0
LINE
8
0
10
116.038525
20
29.429373
11
115.738267
21
29.842910
0
LINE
8
0
10
115.738267
20
29.842910
11
115.314091
21
30.091032
0
LINE
8
0
10
115.314091
20
30.091032
11
114.827953
21
30.173740
0
LINE
8
0
10
114.827953
20
30.173740
11
114.341810
21
30.091032
0
LINE
8
0
10
114.341810
20
30.091032
11
113.917618
21
29.842910
0
LINE
8
0
10
113.917618
20
29.842910
11
113.617334
21
29.429373
0
LINE
8
0
10
113.617334
20
29.429373
11
113.502913
21
28.850421
0
LINE
8
0
10
113.502913
20
28.850421
11
113.607465
21
28.335211
0
LINE
8
0
10
113.607465
20
28.335211
11
113.891539
21
27.914594
0
LINE
8
0
10
113.891539
20
27.914594
11
114.312549
21
27.631063
0
LINE
8
0
10
114.312549
20
27.631063
11
114.827911
21
27.527109
0
LINE
8
0
10
114.827911
20
27.527109
11
115.343254
21
27.631063
0
LINE
8
0
10
115.343254
20
27.631063
11
115.764234
21
27.914594
0
LINE
8
0
10
115.764234
20
27.914594
11
116.048302
21
28.335211
0
LINE
8
0
10
116.048302
20
28.335211
11
116.152908
21
28.850421
0
LINE
8
0
10
116.152908
20
28.850421
11
116.152908
21
28.850421
0
LINE
8
0
10
123.695339
20
29.934868
11
123.581471
21
30.514557
0
LINE
8
0
10
123.581471
20
30.514557
11
123.281276
21
30.928621
0
LINE
8
0
10
123.281276
20
30.928621
11
122.856863
21
31.177060
0
LINE
8
0
10
122.856863
20
31.177060
11
122.370340
21
31.259873
0
LINE
8
0
10
122.370340
20
31.259873
11
121.883817
21
31.177060
0
LINE
8
0
10
121.883817
20
31.177060
11
121.459403
21
30.928621
0
LINE
8
0
10
121.459403
20
30.928621
11
121.159208
21
30.514557
0
LINE
8
0
10
121.159208
20
30.514557
11
121.045341
21
29.934868
0
LINE
8
0
10
121.045341
20
29.934868
11
121.149466
21
29.419114
0
LINE
8
0
10
121.149466
20
29.419114
11
121.433424
21
28.997946
0
LINE
8
0
10
121.433424
20
28.997946
11
121.854590
21
28.713987
0
LINE
8
0
10
121.854590
20
28.713987
11
122.370339
21
28.609862
0
LINE
8
0
10
122.370339
20
28.609862
11
122.886089
21
28.713987
0
LINE
8
0
10
122.886089
20
28.713987
11
123.307255
21
28.997946
0
LINE
8
0
10
123.307255
20
28.997946
11
123.591214
21
29.419114
0
LINE
8
0
10
123.591214
20
29.419114
11
123.695339
21
29.934868
0
LINE
8
0
10
123.695339
20
29.934868
11
123.695339
21
29.934868
0
LINE
8
0
10
170.014183
20
112.660211
11
169.900316
21
113.239897
0
LINE
8
0
10
169.900316
20
113.239897
11
169.600121
21
113.653959
0
LINE
8
0
10
169.600121
20
113.653959
11
169.175707
21
113.902396
0
LINE
8
0
10
169.175707
20
113.902396
11
168.689185
21
113.985208
0
LINE
8
0
10
168.689185
20
113.985208
11
168.202662
21
113.902396
0
LINE
8
0
10
168.202662
20
113.902396
11
167.778248
21
113.653959
0
LINE
8
0
10
167.778248
20
113.653959
11
167.478053
21
113.239897
0
LINE
8
0
10
167.478053
20
113.239897
11
167.364186
21
112.660211
0
LINE
8
0
10
167.364186
20
112.660211
11
167.468311
21
112.144462
0
LINE
8
0
10
167.468311
20
112.144462
11
167.752269
21
111.723297
0
LINE
8
0
10
167.752269
20
111.723297
11
168.173436
21
111.439339
0
LINE
8
0
10
168.173436
20
111.439339
11
168.689186
21
111.335214
0
LINE
8
0
10
168.689186
20
111.335214
11
169.204935
21
111.439339
0
LINE
8
0
10
169.204935
20
111.439339
11
169.626100
21
111.723297
0
LINE
8
0
10
169.626100
20
111.723297
11
169.910058
21
112.144462
0
LINE
8
0
10
169.910058
20
112.144462
11
170.014183
21
112.660211
0
LINE
8
0
10
170.014183
20
112.660211
11
170.014183
21
112.660211
0
LINE
8
0
10
154.893984
20
136.187699
11
154.780117
21
136.767385
0
LINE
8
0
10
154.780117
20
136.767385
11
154.479922
21
137.181447
0
LINE
8
0
10
154.479922
20
137.181447
11
154.055509
21
137.429884
0
LINE
8
0
10
154.055509
20
137.429884
11
153.568986
21
137.512696
0
LINE
8
0
10
153.568986
20
137.512696
11
153.082463
21
137.429884
0
LINE
8
0
10
153.082463
20
137.429884
11
152.658049
21
137.181447
0
LINE
8
0
10
152.658049
20
137.181447
11
152.357854
21
136.767385
0
LINE
8
0
10
152.357854
20
136.767385
11
152.243987
21
136.187699
0
LINE
8
0
10
152.243987
20
136.187699
11
152.348112
21
135.671950
0
LINE
8
0
10
152.348112
20
135.671950
11
152.632070
21
135.250784
0
LINE
8
0
10
152.632070
20
135.250784
11
153.053236
21
134.966826
0
LINE
8
0
10
153.053236
20
134.966826
11
153.568984
21
134.862702
0
LINE
8
0
10
153.568984
20
134.862702
11
154.084735
21
134.966826
0
LINE
8
0
10
154.084735
20
134.966826
11
154.505901
21
135.250784
0
LINE
8
0
10
154.505901
20
135.250784
11
154.789859
21
135.671950
0
LINE
8
0
10
154.789859
20
135.671950
11
154.893984
21
136.187699
0
LINE
8
0
10
154.893984
20
136.187699
11
154.893984
21
136.187699
0
LINE
8
0
10
140.488599
20
146.734554
11
140.374732
21
147.314240
0
LINE
8
0
10
140.374732
20
147.314240
11
140.074537
21
147.728302
0
LINE
8
0
10
140.074537
20
147.728302
11
139.650123
21
147.976739
0
LINE
8
0
10
139.650123
20
147.976739
11
139.163600
21
148.059551
0
LINE
8
0
10
139.163600
20
148.059551
11
138.677077
21
147.976739
0
LINE
8
0
10
138.677077
20
147.976739
11
138.252664
21
147.728302
0
LINE
8
0
10
138.252664
20
147.728302
11
137.952469
21
147.314240
0
LINE
8
0
10
137.952469
20
147.314240
11
137.838602
21
146.734554
0
LINE
8
0
10
137.838602
20
146.734554
11
137.942727
21
146.218805
0
LINE
8
0
10
137.942727
20
146.218805
11
138.226684
21
145.797639
0
LINE
8
0
10
138.226684
20
145.797639
11
138.647850
21
145.513682
0
LINE
8
0
10
138.647850
20
145.513682
11
139.163599
21
145.409557
0
LINE
8
0
10
139.163599
20
145.409557
11
139.679349
21
145.513682
0
LINE
8
0
10
139.679349
20
145.513682
11
140.100516
21
145.797639
0
LINE
8
0
10
140.100516
20
145.797639
11
140.384474
21
146.218805
0
LINE
8
0
10
140.384474
20
146.218805
11
140.488599
21
146.734554
0
LINE
8
0
10
140.488599
20
146.734554
11
140.488599
21
146.734554
0
LINE
8
0
10
123.695339
20
152.795719
11
123.581471
21
153.375406
0
LINE
8
0
10
123.581471
20
153.375406
11
123.281276
21
153.789467
0
LINE
8
0
10
123.281276
20
153.789467
11
122.856863
21
154.037904
0
LINE
8
0
10
122.856863
20
154.037904
11
122.370340
21
154.120716
0
LINE
8
0
10
122.370340
20
154.120716
11
121.883817
21
154.037904
0
LINE
8
0
10
121.883817
20
154.037904
11
121.459403
21
153.789467
0
LINE
8
0
10
121.459403
20
153.789467
11
121.159208
21
153.375406
0
LINE
8
0
10
121.159208
20
153.375406
11
121.045341
21
152.795719
0
LINE
8
0
10
121.045341
20
152.795719
11
121.149466
21
152.279971
0
LINE
8
0
10
121.149466
20
152.279971
11
121.433424
21
151.858805
0
LINE
8
0
10
121.433424
20
151.858805
11
121.854590
21
151.574847
0
LINE
8
0
10
121.854590
20
151.574847
11
122.370339
21
151.470722
0
LINE
8
0
10
122.370339
20
151.470722
11
122.886089
21
151.574847
0
LINE
8
0
10
122.886089
20
151.574847
11
123.307255
21
151.858805
0
LINE
8
0
10
123.307255
20
151.858805
11
123.591214
21
152.279971
0
LINE
8
0
10
123.591214
20
152.279971
11
123.695339
21
152.795719
0
LINE
8
0
10
123.695339
20
152.795719
11
123.695339
21
152.795719
0
LINE
8
0
10
105.874697
20
153.880158
11
105.760830
21
154.459844
0
LINE
8
0
10
105.760830
20
154.459844
11
105.460635
21
154.873906
0
LINE
8
0
10
105.460635
20
154.873906
11
105.036222
21
155.122343
0
LINE
8
0
10
105.036222
20
155.122343
11
104.549699
21
155.205155
0
LINE
8
0
10
104.549699
20
155.205155
11
104.063176
21
155.122343
0
LINE
8
0
10
104.063176
20
155.122343
11
103.638762
21
154.873906
0
LINE
8
0
10
103.638762
20
154.873906
11
103.338567
21
154.459844
0
LINE
8
0
10
103.338567
20
154.459844
11
103.224700
21
153.880158
0
LINE
8
0
10
103.224700
20
153.880158
11
103.328825
21
153.364409
0
LINE
8
0
10
103.328825
20
153.364409
11
103.612783
21
152.943243
0
LINE
8
0
10
103.612783
20
152.943243
11
104.033949
21
152.659285
0
LINE
8
0
10
104.033949
20
152.659285
11
104.549697
21
152.555160
0
LINE
8
0
10
104.549697
20
152.555160
11
105.065448
21
152.659285
0
LINE
8
0
10
105.065448
20
152.659285
11
105.486614
21
152.943243
0
LINE
8
0
10
105.486614
20
152.943243
11
105.770572
21
153.364409
0
LINE
8
0
10
105.770572
20
153.364409
11
105.874697
21
153.880158
0
LINE
8
0
10
105.874697
20
153.880158
11
105.874697
21
153.880158
0
LINE
8
0
10
88.470396
20
149.900012
11
88.356529
21
150.479698
0
LINE
8
0
10
88.356529
20
150.479698
11
88.056334
21
150.893760
0
LINE
8
0
10
88.056334
20
150.893760
11
87.631920
21
151.142197
0
LINE
8
0
10
87.631920
20
151.142197
11
87.145397
21
151.225009
0
LINE
8
0
10
87.145397
20
151.225009
11
86.658874
21
151.142197
0
LINE
8
0
10
86.658874
20
151.142197
11
86.234461
21
150.893760
0
LINE
8
0
10
86.234461
20
150.893760
11
85.934266
21
150.479698
0
LINE
8
0
10
85.934266
20
150.479698
11
85.820399
21
149.900012
0
LINE
8
0
10
85.820399
20
149.900012
11
85.924523
21
149.384263
0
LINE
8
0
10
85.924523
20
149.384263
11
86.208481
21
148.963097
0
LINE
8
0
10
86.208481
20
148.963097
11
86.629647
21
148.679139
0
LINE
8
0
10
86.629647
20
148.679139
11
87.145396
21
148.575014
0
LINE
8
0
10
87.145396
20
148.575014
11
87.661146
21
148.679139
0
LINE
8
0
10
87.661146
20
148.679139
11
88.082313
21
148.963097
0
LINE
8
0
10
88.082313
20
148.963097
11
88.366271
21
149.384263
0
LINE
8
0
10
88.366271
20
149.384263
11
88.470396
21
149.900012
0
LINE
8
0
10
88.470396
20
149.900012
11
88.470396
21
149.900012
0
LINE
8
0
10
72.892426
20
141.177732
11
72.778559
21
141.757418
0
LINE
8
0
10
72.778559
20
141.757418
11
72.478364
21
142.171479
0
LINE
8
0
10
72.478364
20
142.171479
11
72.053950
21
142.419916
0
LINE
8
0
10
72.053950
20
142.419916
11
71.567427
21
142.502729
0
LINE
8
0
10
71.567427
20
142.502729
11
71.080904
21
142.419916
0
LINE
8
0
10
71.080904
20
142.419916
11
70.656491
21
142.171479
0
LINE
8
0
10
70.656491
20
142.171479
11
70.356296
21
141.757418
0
LINE
8
0
10
70.356296
20
141.757418
11
70.242429
21
141.177732
0
LINE
8
0
10
70.242429
20
141.177732
11
70.346554
21
140.661983
0
LINE
8
0
10
70.346554
20
140.661983
11
70.630512
21
140.240817
0
LINE
8
0
10
70.630512
20
140.240817
11
71.051677
21
139.956859
0
LINE
8
0
10
71.051677
20
139.956859
11
71.567426
21
139.852734
0
LINE
8
0
10
71.567426
20
139.852734
11
72.083176
21
139.956859
0
LINE
8
0
10
72.083176
20
139.956859
11
72.504343
21
140.240817
0
LINE
8
0
10
72.504343
20
140.240817
11
72.788301
21
140.661983
0
LINE
8
0
10
72.788301
20
140.661983
11
72.892426
21
141.177732
0
LINE
8
0
10
72.892426
20
141.177732
11
72.892426
21
141.177732
0
LINE
8
0
10
60.402825
20
128.419947
11
60.288958
21
128.999633
0
LINE
8
0
10
60.288958
20
128.999633
11
59.988763
21
129.413695
0
LINE
8
0
10
59.988763
20
129.413695
11
59.564350
21
129.662132
0
LINE
8
0
10
59.564350
20
129.662132
11
59.077827
21
129.744944
0
LINE
8
0
10
59.077827
20
129.744944
11
58.591304
21
129.662132
0
LINE
8
0
10
58.591304
20
129.662132
11
58.166890
21
129.413695
0
LINE
8
0
10
58.166890
20
129.413695
11
57.866695
21
128.999633
0
LINE
8
0
10
57.866695
20
128.999633
11
57.752828
21
128.419947
0
LINE
8
0
10
57.752828
20
128.419947
11
57.856953
21
127.904198
0
LINE
8
0
10
57.856953
20
127.904198
11
58.140911
21
127.483032
0
LINE
8
0
10
58.140911
20
127.483032
11
58.562078
21
127.199074
0
LINE
8
0
10
58.562078
20
127.199074
11
59.077828
21
127.094949
0
LINE
8
0
10
59.077828
20
127.094949
11
59.593577
21
127.199074
0
LINE
8
0
10
59.593577
20
127.199074
11
60.014742
21
127.483032
0
LINE
8
0
10
60.014742
20
127.483032
11
60.298700
21
127.904198
0
LINE
8
0
10
60.298700
20
127.904198
11
60.402825
21
128.419947
0
LINE
8
0
10
60.402825
20
128.419947
11
60.402825
21
128.419947
0
LINE
8
0
10
52.013422
20
112.660211
11
51.899039
21
113.239165
0
LINE
8
0
10
51.899039
20
113.239165
11
51.598781
21
113.652703
0
LINE
8
0
10
51.598781
20
113.652703
11
51.174605
21
113.900826
0
LINE
8
0
10
51.174605
20
113.900826
11
50.688468
21
113.983534
0
LINE
8
0
10
50.688468
20
113.983534
11
50.202324
21
113.900826
0
LINE
8
0
10
50.202324
20
113.900826
11
49.778133
21
113.652703
0
LINE
8
0
10
49.778133
20
113.652703
11
49.477848
21
113.239165
0
LINE
8
0
10
49.477848
20
113.239165
11
49.363428
21
112.660211
0
LINE
8
0
10
49.363428
20
112.660211
11
49.467979
21
112.145000
0
LINE
8
0
10
49.467979
20
112.145000
11
49.752053
21
111.724379
0
LINE
8
0
10
49.752053
20
111.724379
11
50.173063
21
111.440844
0
LINE
8
0
10
50.173063
20
111.440844
11
50.688425
21
111.336889
0
LINE
8
0
10
50.688425
20
111.336889
11
51.203768
21
111.440844
0
LINE
8
0
10
51.203768
20
111.440844
11
51.624748
21
111.724379
0
LINE
8
0
10
51.624748
20
111.724379
11
51.908816
21
112.145000
0
LINE
8
0
10
51.908816
20
112.145000
11
52.013422
21
112.660211
0
LINE
8
0
10
52.013422
20
112.660211
11
52.013422
21
112.660211
0
LINE
8
0
10
48.403883
20
95.175291
11
48.290016
21
95.754978
0
LINE
8
0
10
48.290016
20
95.754978
11
47.989821
21
96.169039
0
LINE
8
0
10
47.989821
20
96.169039
11
47.565407
21
96.417476
0
LINE
8
0
10
47.565407
20
96.417476
11
47.078884
21
96.500288
0
LINE
8
0
10
47.078884
20
96.500288
11
46.592361
21
96.417476
0
LINE
8
0
10
46.592361
20
96.417476
11
46.167948
21
96.169039
0
LINE
8
0
10
46.167948
20
96.169039
11
45.867753
21
95.754978
0
LINE
8
0
10
45.867753
20
95.754978
11
45.753886
21
95.175291
0
LINE
8
0
10
45.753886
20
95.175291
11
45.858011
21
94.659542
0
LINE
8
0
10
45.858011
20
94.659542
11
46.141969
21
94.238377
0
LINE
8
0
10
46.141969
20
94.238377
11
46.563135
21
93.954419
0
LINE
8
0
10
46.563135
20
93.954419
11
47.078886
21
93.850294
0
LINE
8
0
10
47.078886
20
93.850294
11
47.594634
21
93.954419
0
LINE
8
0
10
47.594634
20
93.954419
11
48.015800
21
94.238377
0
LINE
8
0
10
48.015800
20
94.238377
11
48.299758
21
94.659542
0
LINE
8
0
10
48.299758
20
94.659542
11
48.403883
21
95.175291
0
LINE
8
0
10
48.403883
20
95.175291
11
48.403883
21
95.175291
0
LINE
8
0
10
49.866625
20
77.381706
11
49.752758
21
77.961392
0
LINE
8
0
10
49.752758
20
77.961392
11
49.452563
21
78.375454
0
LINE
8
0
10
49.452563
20
78.375454
11
49.028149
21
78.623891
0
LINE
8
0
10
49.028149
20
78.623891
11
48.541626
21
78.706703
0
LINE
8
0
10
48.541626
20
78.706703
11
48.055103
21
78.623891
0
LINE
8
0
10
48.055103
20
78.623891
11
47.630690
21
78.375454
0
LINE
8
0
10
47.630690
20
78.375454
11
47.330495
21
77.961392
0
LINE
8
0
10
47.330495
20
77.961392
11
47.216628
21
77.381706
0
LINE
8
0
10
47.216628
20
77.381706
11
47.320752
21
76.865957
0
LINE
8
0
10
47.320752
20
76.865957
11
47.604711
21
76.444792
0
LINE
8
0
10
47.604711
20
76.444792
11
48.025877
21
76.160834
0
LINE
8
0
10
48.025877
20
76.160834
11
48.541627
21
76.056709
0
LINE
8
0
10
48.541627
20
76.056709
11
49.057376
21
76.160834
0
LINE
8
0
10
49.057376
20
76.160834
11
49.478542
21
76.444792
0
LINE
8
0
10
49.478542
20
76.444792
11
49.762500
21
76.865957
0
LINE
8
0
10
49.762500
20
76.865957
11
49.866625
21
77.381706
0
LINE
8
0
10
49.866625
20
77.381706
11
49.866625
21
77.381706
0
LINE
8
0
10
56.283146
20
60.720989
11
56.169279
21
61.300675
0
LINE
8
0
10
56.169279
20
61.300675
11
55.869084
21
61.714737
0
LINE
8
0
10
55.869084
20
61.714737
11
55.444670
21
61.963174
0
LINE
8
0
10
55.444670
20
61.963174
11
54.958148
21
62.045986
0
LINE
8
0
10
54.958148
20
62.045986
11
54.471625
21
61.963174
0
LINE
8
0
10
54.471625
20
61.963174
11
54.047211
21
61.714737
0
LINE
8
0
10
54.047211
20
61.714737
11
53.747016
21
61.300675
0
LINE
8
0
10
53.747016
20
61.300675
11
53.633149
21
60.720989
0
LINE
8
0
10
53.633149
20
60.720989
11
53.737274
21
60.205240
0
LINE
8
0
10
53.737274
20
60.205240
11
54.021232
21
59.784074
0
LINE
8
0
10
54.021232
20
59.784074
11
54.442398
21
59.500116
0
LINE
8
0
10
54.442398
20
59.500116
11
54.958146
21
59.395991
0
LINE
8
0
10
54.958146
20
59.395991
11
55.473896
21
59.500116
0
LINE
8
0
10
55.473896
20
59.500116
11
55.895063
21
59.784074
0
LINE
8
0
10
55.895063
20
59.784074
11
56.179021
21
60.205240
0
LINE
8
0
10
56.179021
20
60.205240
11
56.283146
21
60.720989
0
LINE
8
0
10
56.283146
20
60.720989
11
56.283146
21
60.720989
0
LINE
8
0
10
67.133621
20
46.542891
11
67.019238
21
47.121844
0
LINE
8
0
10
67.019238
20
47.121844
11
66.718980
21
47.535382
0
LINE
8
0
10
66.718980
20
47.535382
11
66.294804
21
47.783505
0
LINE
8
0
10
66.294804
20
47.783505
11
65.808666
21
47.866213
0
LINE
8
0
10
65.808666
20
47.866213
11
65.322523
21
47.783505
0
LINE
8
0
10
65.322523
20
47.783505
11
64.898331
21
47.535382
0
LINE
8
0
10
64.898331
20
47.535382
11
64.598047
21
47.121844
0
LINE
8
0
10
64.598047
20
47.121844
11
64.483626
21
46.542891
0
LINE
8
0
10
64.483626
20
46.542891
11
64.588178
21
46.027679
0
LINE
8
0
10
64.588178
20
46.027679
11
64.872252
21
45.607059
0
LINE
8
0
10
64.872252
20
45.607059
11
65.293262
21
45.323523
0
LINE
8
0
10
65.293262
20
45.323523
11
65.808624
21
45.219568
0
LINE
8
0
10
65.808624
20
45.219568
11
66.323967
21
45.323523
0
LINE
8
0
10
66.323967
20
45.323523
11
66.744947
21
45.607059
0
LINE
8
0
10
66.744947
20
45.607059
11
67.029015
21
46.027679
0
LINE
8
0
10
67.029015
20
46.027679
11
67.133621
21
46.542891
0
LINE
8
0
10
67.133621
20
46.542891
11
67.133621
21
46.542891
0
LINE
8
0
10
81.539009
20
35.996038
11
81.425142
21
36.575724
0
LINE
8
0
10
81.425142
20
36.575724
11
81.124947
21
36.989786
0
LINE
8
0
10
81.124947
20
36.989786
11
80.700533
21
37.238223
0
LINE
8
0
10
80.700533
20
37.238223
11
80.214010
21
37.321035
0
LINE
8
0
10
80.214010
20
37.321035
11
79.727488
21
37.238223
0
LINE
8
0
10
79.727488
20
37.238223
11
79.303074
21
36.989786
0
LINE
8
0
10
79.303074
20
36.989786
11
79.002879
21
36.575724
0
LINE
8
0
10
79.002879
20
36.575724
11
78.889012
21
35.996038
0
LINE
8
0
10
78.889012
20
35.996038
11
78.993137
21
35.480289
0
LINE
8
0
10
78.993137
20
35.480289
11
79.277095
21
35.059124
0
LINE
8
0
10
79.277095
20
35.059124
11
79.698260
21
34.775166
0
LINE
8
0
10
79.698260
20
34.775166
11
80.214009
21
34.671041
0
LINE
8
0
10
80.214009
20
34.671041
11
80.729759
21
34.775166
0
LINE
8
0
10
80.729759
20
34.775166
11
81.150926
21
35.059124
0
LINE
8
0
10
81.150926
20
35.059124
11
81.434884
21
35.480289
0
LINE
8
0
10
81.434884
20
35.480289
11
81.539009
21
35.996038
0
LINE
8
0
10
81.539009
20
35.996038
11
81.539009
21
35.996038
0
LINE
8
0
10
133.557210
20
32.830578
11
133.442826
21
33.409531
0
LINE
8
0
10
133.442826
20
33.409531
11
133.142569
21
33.823069
0
LINE
8
0
10
133.142569
20
33.823069
11
132.718393
21
34.071192
0
LINE
8
0
10
132.718393
20
34.071192
11
132.232255
21
34.153900
0
LINE
8
0
10
132.232255
20
34.153900
11
131.746112
21
34.071192
0
LINE
8
0
10
131.746112
20
34.071192
11
131.321920
21
33.823069
0
LINE
8
0
10
131.321920
20
33.823069
11
131.021635
21
33.409531
0
LINE
8
0
10
131.021635
20
33.409531
11
130.907215
21
32.830578
0
LINE
8
0
10
130.907215
20
32.830578
11
131.011767
21
32.315363
0
LINE
8
0
10
131.011767
20
32.315363
11
131.295840
21
31.894744
0
LINE
8
0
10
131.295840
20
31.894744
11
131.716851
21
31.611211
0
LINE
8
0
10
131.716851
20
31.611211
11
132.232212
21
31.507258
0
LINE
8
0
10
132.232212
20
31.507258
11
132.747555
21
31.611211
0
LINE
8
0
10
132.747555
20
31.611211
11
133.168535
21
31.894744
0
LINE
8
0
10
133.168535
20
31.894744
11
133.452603
21
32.315363
0
LINE
8
0
10
133.452603
20
32.315363
11
133.557210
21
32.830578
0
LINE
8
0
10
133.557210
20
32.830578
11
133.557210
21
32.830578
0
LINE
8
0
10
149.135179
20
41.552858
11
149.021312
21
42.132544
0
LINE
8
0
10
149.021312
20
42.132544
11
148.721117
21
42.546606
0
LINE
8
0
10
148.721117
20
42.546606
11
148.296704
21
42.795043
0
LINE
8
0
10
148.296704
20
42.795043
11
147.810181
21
42.877855
0
LINE
8
0
10
147.810181
20
42.877855
11
147.323658
21
42.795043
0
LINE
8
0
10
147.323658
20
42.795043
11
146.899244
21
42.546606
0
LINE
8
0
10
146.899244
20
42.546606
11
146.599049
21
42.132544
0
LINE
8
0
10
146.599049
20
42.132544
11
146.485182
21
41.552858
0
LINE
8
0
10
146.485182
20
41.552858
11
146.589307
21
41.037109
0
LINE
8
0
10
146.589307
20
41.037109
11
146.873265
21
40.615943
0
LINE
8
0
10
146.873265
20
40.615943
11
147.294432
21
40.331985
0
LINE
8
0
10
147.294432
20
40.331985
11
147.810182
21
40.227861
0
LINE
8
0
10
147.810182
20
40.227861
11
148.325931
21
40.331985
0
LINE
8
0
10
148.325931
20
40.331985
11
148.747096
21
40.615943
0
LINE
8
0
10
148.747096
20
40.615943
11
149.031054
21
41.037109
0
LINE
8
0
10
149.031054
20
41.037109
11
149.135179
21
41.552858
0
LINE
8
0
10
149.135179
20
41.552858
11
149.135179
21
41.552858
0
LINE
8
0
10
161.624783
20
54.310645
11
161.510916
21
54.890332
0
LINE
8
0
10
161.510916
20
54.890332
11
161.210721
21
55.304393
0
LINE
8
0
10
161.210721
20
55.304393
11
160.786307
21
55.552830
0
LINE
8
0
10
160.786307
20
55.552830
11
160.299784
21
55.635643
0
LINE
8
0
10
160.299784
20
55.635643
11
159.813261
21
55.552830
0
LINE
8
0
10
159.813261
20
55.552830
11
159.388848
21
55.304393
0
LINE
8
0
10
159.388848
20
55.304393
11
159.088653
21
54.890332
0
LINE
8
0
10
159.088653
20
54.890332
11
158.974786
21
54.310645
0
LINE
8
0
10
158.974786
20
54.310645
11
159.078910
21
53.794897
0
LINE
8
0
10
159.078910
20
53.794897
11
159.362868
21
53.373731
0
LINE
8
0
10
159.362868
20
53.373731
11
159.784034
21
53.089773
0
LINE
8
0
10
159.784034
20
53.089773
11
160.299783
21
52.985648
0
LINE
8
0
10
160.299783
20
52.985648
11
160.815533
21
53.089773
0
LINE
8
0
10
160.815533
20
53.089773
11
161.236700
21
53.373731
0
LINE
8
0
10
161.236700
20
53.373731
11
161.520658
21
53.794897
0
LINE
8
0
10
161.520658
20
53.794897
11
161.624783
21
54.310645
0
LINE
8
0
10
161.624783
20
54.310645
11
161.624783
21
54.310645
0
LINE
8
0
10
170.014183
20
70.070378
11
169.900316
21
70.650065
0
LINE
8
0
10
169.900316
20
70.650065
11
169.600121
21
71.064126
0
LINE
8
0
10
169.600121
20
71.064126
11
169.175707
21
71.312563
0
LINE
8
0
10
169.175707
20
71.312563
11
168.689185
21
71.395375
0
LINE
8
0
10
168.689185
20
71.395375
11
168.202662
21
71.312563
0
LINE
8
0
10
168.202662
20
71.312563
11
167.778248
21
71.064126
0
LINE
8
0
10
167.778248
20
71.064126
11
167.478053
21
70.650065
0
LINE
8
0
10
167.478053
20
70.650065
11
167.364186
21
70.070378
0
LINE
8
0
10
167.364186
20
70.070378
11
167.468311
21
69.554630
0
LINE
8
0
10
167.468311
20
69.554630
11
167.752269
21
69.133464
0
LINE
8
0
10
167.752269
20
69.133464
11
168.173436
21
68.849506
0
LINE
8
0
10
168.173436
20
68.849506
11
168.689186
21
68.745381
0
LINE
8
0
10
168.689186
20
68.745381
11
169.204935
21
68.849506
0
LINE
8
0
10
169.204935
20
68.849506
11
169.626100
21
69.133464
0
LINE
8
0
10
169.626100
20
69.133464
11
169.910058
21
69.554630
0
LINE
8
0
10
169.910058
20
69.554630
11
170.014183
21
70.070378
0
LINE
8
0
10
170.014183
20
70.070378
11
170.014183
21
70.070378
0
LINE
8
0
10
105.874697
20
28.850421
11
105.760830
21
29.430111
0
LINE
8
0
10
105.760830
20
29.430111
11
105.460635
21
29.844175
0
LINE
8
0
10
105.460635
20
29.844175
11
105.036222
21
30.092614
0
LINE
8
0
10
105.036222
20
30.092614
11
104.549699
21
30.175426
0
LINE
8
0
10
104.549699
20
30.175426
11
104.063176
21
30.092614
0
LINE
8
0
10
104.063176
20
30.092614
11
103.638762
21
29.844175
0
LINE
8
0
10
103.638762
20
29.844175
11
103.338567
21
29.430111
0
LINE
8
0
10
103.338567
20
29.430111
11
103.224700
21
28.850421
0
LINE
8
0
10
103.224700
20
28.850421
11
103.328825
21
28.334668
0
LINE
8
0
10
103.328825
20
28.334668
11
103.612783
21
27.913500
0
LINE
8
0
10
103.612783
20
27.913500
11
104.033949
21
27.629541
0
LINE
8
0
10
104.033949
20
27.629541
11
104.549697
21
27.525416
0
LINE
8
0
10
104.549697
20
27.525416
11
105.065448
21
27.629541
0
LINE
8
0
10
105.065448
20
27.629541
11
105.486614
21
27.913500
0
LINE
8
0
10
105.486614
20
27.913500
11
105.770572
21
28.334668
0
LINE
8
0
10
105.770572
20
28.334668
11
105.874697
21
28.850421
0
LINE
8
0
10
105.874697
20
28.850421
11
105.874697
21
28.850421
0
LINE
8
0
10
49.866625
20
105.348886
11
49.752758
21
105.928572
0
LINE
8
0
10
49.752758
20
105.928572
11
49.452563
21
106.342634
0
LINE
8
0
10
49.452563
20
106.342634
11
49.028149
21
106.591071
0
LINE
8
0
10
49.028149
20
106.591071
11
48.541626
21
106.673883
0
LINE
8
0
10
48.541626
20
106.673883
11
48.055103
21
106.591071
0
LINE
8
0
10
48.055103
20
106.591071
11
47.630690
21
106.342634
0
LINE
8
0
10
47.630690
20
106.342634
11
47.330495
21
105.928572
0
LINE
8
0
10
47.330495
20
105.928572
11
47.216628
21
105.348886
0
LINE
8
0
10
47.216628
20
105.348886
11
47.320752
21
104.833137
0
LINE
8
0
10
47.320752
20
104.833137
11
47.604711
21
104.411971
0
LINE
8
0
10
47.604711
20
104.411971
11
48.025877
21
104.128014
0
LINE
8
0
10
48.025877
20
104.128014
11
48.541627
21
104.023889
0
LINE
8
0
10
48.541627
20
104.023889
11
49.057376
21
104.128014
0
LINE
8
0
10
49.057376
20
104.128014
11
49.478542
21
104.411971
0
LINE
8
0
10
49.478542
20
104.411971
11
49.762500
21
104.833137
0
LINE
8
0
10
49.762500
20
104.833137
11
49.866625
21
105.348886
0
LINE
8
0
10
49.866625
20
105.348886
11
49.866625
21
105.348886
0
LINE
8
0
10
48.403883
20
87.555301
11
48.290016
21
88.134987
0
LINE
8
0
10
48.290016
20
88.134987
11
47.989821
21
88.549049
0
LINE
8
0
10
47.989821
20
88.549049
11
47.565407
21
88.797486
0
LINE
8
0
10
47.565407
20
88.797486
11
47.078884
21
88.880298
0
LINE
8
0
10
47.078884
20
88.880298
11
46.592361
21
88.797486
0
LINE
8
0
10
46.592361
20
88.797486
11
46.167948
21
88.549049
0
LINE
8
0
10
46.167948
20
88.549049
11
45.867753
21
88.134987
0
LINE
8
0
10
45.867753
20
88.134987
11
45.753886
21
87.555301
0
LINE
8
0
10
45.753886
20
87.555301
11
45.858011
21
87.039552
0
LINE
8
0
10
45.858011
20
87.039552
11
46.141969
21
86.618386
0
LINE
8
0
10
46.141969
20
86.618386
11
46.563135
21
86.334428
0
LINE
8
0
10
46.563135
20
86.334428
11
47.078886
21
86.230304
0
LINE
8
0
10
47.078886
20
86.230304
11
47.594634
21
86.334428
0
LINE
8
0
10
47.594634
20
86.334428
11
48.015800
21
86.618386
0
LINE
8
0
10
48.015800
20
86.618386
11
48.299758
21
87.039552
0
LINE
8
0
10
48.299758
20
87.039552
11
48.403883
21
87.555301
0
LINE
8
0
10
48.403883
20
87.555301
11
48.403883
21
87.555301
0
LINE
8
0
10
161.624783
20
128.419947
11
161.510916
21
128.999633
0
LINE
8
0
10
161.510916
20
128.999633
11
161.210721
21
129.413695
0
LINE
8
0
10
161.210721
20
129.413695
11
160.786307
21
129.662132
0
LINE
8
0
10
160.786307
20
129.662132
11
160.299784
21
129.744944
0
LINE
8
0
10
160.299784
20
129.744944
11
159.813261
21
129.662132
0
LINE
8
0
10
159.813261
20
129.662132
11
159.388848
21
129.413695
0
LINE
8
0
10
159.388848
20
129.413695
11
159.088653
21
128.999633
0
LINE
8
0
10
159.088653
20
128.999633
11
158.974786
21
128.419947
0
LINE
8
0
10
158.974786
20
128.419947
11
159.078910
21
127.904198
0
LINE
8
0
10
159.078910
20
127.904198
11
159.362868
21
127.483032
0
LINE
8
0
10
159.362868
20
127.483032
11
159.784034
21
127.199074
0
LINE
8
0
10
159.784034
20
127.199074
11
160.299783
21
127.094949
0
LINE
8
0
10
160.299783
20
127.094949
11
160.815533
21
127.199074
0
LINE
8
0
10
160.815533
20
127.199074
11
161.236700
21
127.483032
0
LINE
8
0
10
161.236700
20
127.483032
11
161.520658
21
127.904198
0
LINE
8
0
10
161.520658
20
127.904198
11
161.624783
21
128.419947
0
LINE
8
0
10
161.624783
20
128.419947
11
161.624783
21
128.419947
0
LINE
8
0
10
149.135179
20
141.177732
11
149.021312
21
141.757418
0
LINE
8
0
10
149.021312
20
141.757418
11
148.721117
21
142.171479
0
LINE
8
0
10
148.721117
20
142.171479
11
148.296704
21
142.419916
0
LINE
8
0
10
148.296704
20
142.419916
11
147.810181
21
142.502729
0
LINE
8
0
10
147.810181
20
142.502729
11
147.323658
21
142.419916
0
LINE
8
0
10
147.323658
20
142.419916
11
146.899244
21
142.171479
0
LINE
8
0
10
146.899244
20
142.171479
11
146.599049
21
141.757418
0
LINE
8
0
10
146.599049
20
141.757418
11
146.485182
21
141.177732
0
LINE
8
0
10
146.485182
20
141.177732
11
146.589307
21
140.661983
0
LINE
8
0
10
146.589307
20
140.661983
11
146.873265
21
140.240817
0
LINE
8
0
10
146.873265
20
140.240817
11
147.294432
21
139.956859
0
LINE
8
0
10
147.294432
20
139.956859
11
147.810182
21
139.852734
0
LINE
8
0
10
147.810182
20
139.852734
11
148.325931
21
139.956859
0
LINE
8
0
10
148.325931
20
139.956859
11
148.747096
21
140.240817
0
LINE
8
0
10
148.747096
20
140.240817
11
149.031054
21
140.661983
0
LINE
8
0
10
149.031054
20
140.661983
11
149.135179
21
141.177732
0
LINE
8
0
10
149.135179
20
141.177732
11
149.135179
21
141.177732
0
LINE
8
0
10
133.557210
20
149.900012
11
133.442826
21
150.478965
0
LINE
8
0
10
133.442826
20
150.478965
11
133.142569
21
150.892504
0
LINE
8
0
10
133.142569
20
150.892504
11
132.718393
21
151.140627
0
LINE
8
0
10
132.718393
20
151.140627
11
132.232255
21
151.223334
0
LINE
8
0
10
132.232255
20
151.223334
11
131.746112
21
151.140627
0
LINE
8
0
10
131.746112
20
151.140627
11
131.321920
21
150.892504
0
LINE
8
0
10
131.321920
20
150.892504
11
131.021635
21
150.478965
0
LINE
8
0
10
131.021635
20
150.478965
11
130.907215
21
149.900012
0
LINE
8
0
10
130.907215
20
149.900012
11
131.011767
21
149.384800
0
LINE
8
0
10
131.011767
20
149.384800
11
131.295840
21
148.964180
0
LINE
8
0
10
131.295840
20
148.964180
11
131.716851
21
148.680644
0
LINE
8
0
10
131.716851
20
148.680644
11
132.232212
21
148.576689
0
LINE
8
0
10
132.232212
20
148.576689
11
132.747555
21
148.680644
0
LINE
8
0
10
132.747555
20
148.680644
11
133.168535
21
148.964180
0
LINE
8
0
10
133.168535
20
148.964180
11
133.452603
21
149.384800
0
LINE
8
0
10
133.452603
20
149.384800
11
133.557210
21
149.900012
0
LINE
8
0
10
133.557210
20
149.900012
11
133.557210
21
149.900012
0
LINE
8
0
10
116.152908
20
153.880158
11
116.038525
21
154.459111
0
LINE
8
0
10
116.038525
20
154.459111
11
115.738267
21
154.872649
0
LINE
8
0
10
115.738267
20
154.872649
11
115.314091
21
155.120772
0
LINE
8
0
10
115.314091
20
155.120772
11
114.827953
21
155.203480
0
LINE
8
0
10
114.827953
20
155.203480
11
114.341810
21
155.120772
0
LINE
8
0
10
114.341810
20
155.120772
11
113.917618
21
154.872649
0
LINE
8
0
10
113.917618
20
154.872649
11
113.617334
21
154.459111
0
LINE
8
0
10
113.617334
20
154.459111
11
113.502913
21
153.880158
0
LINE
8
0
10
113.502913
20
153.880158
11
113.607465
21
153.364946
0
LINE
8
0
10
113.607465
20
153.364946
11
113.891539
21
152.944326
0
LINE
8
0
10
113.891539
20
152.944326
11
114.312549
21
152.660790
0
LINE
8
0
10
114.312549
20
152.660790
11
114.827911
21
152.556835
0
LINE
8
0
10
114.827911
20
152.556835
11
115.343254
21
152.660790
0
LINE
8
0
10
115.343254
20
152.660790
11
115.764234
21
152.944326
0
LINE
8
0
10
115.764234
20
152.944326
11
116.048302
21
153.364946
0
LINE
8
0
10
116.048302
20
153.364946
11
116.152908
21
153.880158
0
LINE
8
0
10
116.152908
20
153.880158
11
116.152908
21
153.880158
0
LINE
8
0
10
98.332267
20
152.795719
11
98.218400
21
153.375406
0
LINE
8
0
10
98.218400
20
153.375406
11
97.918205
21
153.789467
0
LINE
8
0
10
97.918205
20
153.789467
11
97.493791
21
154.037904
0
LINE
8
0
10
97.493791
20
154.037904
11
97.007268
21
154.120716
0
LINE
8
0
10
97.007268
20
154.120716
11
96.520745
21
154.037904
0
LINE
8
0
10
96.520745
20
154.037904
11
96.096332
21
153.789467
0
LINE
8
0
10
96.096332
20
153.789467
11
95.796137
21
153.375406
0
LINE
8
0
10
95.796137
20
153.375406
11
95.682269
21
152.795719
0
LINE
8
0
10
95.682269
20
152.795719
11
95.786394
21
152.279971
0
LINE
8
0
10
95.786394
20
152.279971
11
96.070353
21
151.858805
0
LINE
8
0
10
96.070353
20
151.858805
11
96.491519
21
151.574847
0
LINE
8
0
10
96.491519
20
151.574847
11
97.007269
21
151.470722
0
LINE
8
0
10
97.007269
20
151.470722
11
97.523018
21
151.574847
0
LINE
8
0
10
97.523018
20
151.574847
11
97.944184
21
151.858805
0
LINE
8
0
10
97.944184
20
151.858805
11
98.228142
21
152.279971
0
LINE
8
0
10
98.228142
20
152.279971
11
98.332267
21
152.795719
0
LINE
8
0
10
98.332267
20
152.795719
11
98.332267
21
152.795719
0
LINE
8
0
10
81.539009
20
146.734554
11
81.425142
21
147.314240
0
LINE
8
0
10
81.425142
20
147.314240
11
81.124947
21
147.728302
0
LINE
8
0
10
81.124947
20
147.728302
11
80.700533
21
147.976739
0
LINE
8
0
10
80.700533
20
147.976739
11
80.214010
21
148.059551
0
LINE
8
0
10
80.214010
20
148.059551
11
79.727488
21
147.976739
0
LINE
8
0
10
79.727488
20
147.976739
11
79.303074
21
147.728302
0
LINE
8
0
10
79.303074
20
147.728302
11
79.002879
21
147.314240
0
LINE
8
0
10
79.002879
20
147.314240
11
78.889012
21
146.734554
0
LINE
8
0
10
78.889012
20
146.734554
11
78.993137
21
146.218805
0
LINE
8
0
10
78.993137
20
146.218805
11
79.277095
21
145.797639
0
LINE
8
0
10
79.277095
20
145.797639
11
79.698260
21
145.513682
0
LINE
8
0
10
79.698260
20
145.513682
11
80.214009
21
145.409557
0
LINE
8
0
10
80.214009
20
145.409557
11
80.729759
21
145.513682
0
LINE
8
0
10
80.729759
20
145.513682
11
81.150926
21
145.797639
0
LINE
8
0
10
81.150926
20
145.797639
11
81.434884
21
146.218805
0
LINE
8
0
10
81.434884
20
146.218805
11
81.539009
21
146.734554
0
LINE
8
0
10
81.539009
20
146.734554
11
81.539009
21
146.734554
0
LINE
8
0
10
67.133621
20
136.187699
11
67.019238
21
136.766652
0
LINE
8
0
10
67.019238
20
136.766652
11
66.718980
21
137.180191
0
LINE
8
0
10
66.718980
20
137.180191
11
66.294804
21
137.428314
0
LINE
8
0
10
66.294804
20
137.428314
11
65.808666
21
137.511021
0
LINE
8
0
10
65.808666
20
137.511021
11
65.322523
21
137.428314
0
LINE
8
0
10
65.322523
20
137.428314
11
64.898331
21
137.180191
0
LINE
8
0
10
64.898331
20
137.180191
11
64.598047
21
136.766652
0
LINE
8
0
10
64.598047
20
136.766652
11
64.483626
21
136.187699
0
LINE
8
0
10
64.483626
20
136.187699
11
64.588178
21
135.672487
0
LINE
8
0
10
64.588178
20
135.672487
11
64.872252
21
135.251867
0
LINE
8
0
10
64.872252
20
135.251867
11
65.293262
21
134.968331
0
LINE
8
0
10
65.293262
20
134.968331
11
65.808624
21
134.864376
0
LINE
8
0
10
65.808624
20
134.864376
11
66.323967
21
134.968331
0
LINE
8
0
10
66.323967
20
134.968331
11
66.744947
21
135.251867
0
LINE
8
0
10
66.744947
20
135.251867
11
67.029015
21
135.672487
0
LINE
8
0
10
67.029015
20
135.672487
11
67.133621
21
136.187699
0
LINE
8
0
10
67.133621
20
136.187699
11
67.133621
21
136.187699
0
LINE
8
0
10
56.283146
20
122.009603
11
56.169279
21
122.589290
0
LINE
8
0
10
56.169279
20
122.589290
11
55.869084
21
123.003351
0
LINE
8
0
10
55.869084
20
123.003351
11
55.444670
21
123.251788
0
LINE
8
0
10
55.444670
20
123.251788
11
54.958148
21
123.334601
0
LINE
8
0
10
54.958148
20
123.334601
11
54.471625
21
123.251788
0
LINE
8
0
10
54.471625
20
123.251788
11
54.047211
21
123.003351
0
LINE
8
0
10
54.047211
20
123.003351
11
53.747016
21
122.589290
0
LINE
8
0
10
53.747016
20
122.589290
11
53.633149
21
122.009603
0
LINE
8
0
10
53.633149
20
122.009603
11
53.737274
21
121.493855
0
LINE
8
0
10
53.737274
20
121.493855
11
54.021232
21
121.072689
0
LINE
8
0
10
54.021232
20
121.072689
11
54.442398
21
120.788731
0
LINE
8
0
10
54.442398
20
120.788731
11
54.958146
21
120.684606
0
LINE
8
0
10
54.958146
20
120.684606
11
55.473896
21
120.788731
0
LINE
8
0
10
55.473896
20
120.788731
11
55.895063
21
121.072689
0
LINE
8
0
10
55.895063
20
121.072689
11
56.179021
21
121.493855
0
LINE
8
0
10
56.179021
20
121.493855
11
56.283146
21
122.009603
0
LINE
8
0
10
56.283146
20
122.009603
11
56.283146
21
122.009603
0
LINE
8
0
10
88.470396
20
32.830578
11
88.356529
21
33.410264
0
LINE
8
0
10
88.356529
20
33.410264
11
88.056334
21
33.824326
0
LINE
8
0
10
88.056334
20
33.824326
11
87.631920
21
34.072763
0
LINE
8
0
10
87.631920
20
34.072763
11
87.145397
21
34.155575
0
LINE
8
0
10
87.145397
20
34.155575
11
86.658874
21
34.072763
0
LINE
8
0
10
86.658874
20
34.072763
11
86.234461
21
33.824326
0
LINE
8
0
10
86.234461
20
33.824326
11
85.934266
21
33.410264
0
LINE
8
0
10
85.934266
20
33.410264
11
85.820399
21
32.830578
0
LINE
8
0
10
85.820399
20
32.830578
11
85.924523
21
32.314835
0
LINE
8
0
10
85.924523
20
32.314835
11
86.208481
21
31.893672
0
LINE
8
0
10
86.208481
20
31.893672
11
86.629647
21
31.609716
0
LINE
8
0
10
86.629647
20
31.609716
11
87.145396
21
31.505591
0
LINE
8
0
10
87.145396
20
31.505591
11
87.661146
21
31.609716
0
LINE
8
0
10
87.661146
20
31.609716
11
88.082313
21
31.893672
0
LINE
8
0
10
88.082313
20
31.893672
11
88.366271
21
32.314835
0
LINE
8
0
10
88.366271
20
32.314835
11
88.470396
21
32.830578
0
LINE
8
0
10
88.470396
20
32.830578
11
88.470396
21
32.830578
0
LINE
8
0
10
140.488599
20
35.996038
11
140.374732
21
36.575724
0
LINE
8
0
10
140.374732
20
36.575724
11
140.074537
21
36.989786
0
LINE
8
0
10
140.074537
20
36.989786
11
139.650123
21
37.238223
0
LINE
8
0
10
139.650123
20
37.238223
11
139.163600
21
37.321035
0
LINE
8
0
10
139.163600
20
37.321035
11
138.677077
21
37.238223
0
LINE
8
0
10
138.677077
20
37.238223
11
138.252664
21
36.989786
0
LINE
8
0
10
138.252664
20
36.989786
11
137.952469
21
36.575724
0
LINE
8
0
10
137.952469
20
36.575724
11
137.838602
21
35.996038
0
LINE
8
0
10
137.838602
20
35.996038
11
137.942727
21
35.480289
0
LINE
8
0
10
137.942727
20
35.480289
11
138.226684
21
35.059124
0
LINE
8
0
10
138.226684
20
35.059124
11
138.647850
21
34.775166
0
LINE
8
0
10
138.647850
20
34.775166
11
139.163599
21
34.671041
0
LINE
8
0
10
139.163599
20
34.671041
11
139.679349
21
34.775166
0
LINE
8
0
10
139.679349
20
34.775166
11
140.100516
21
35.059124
0
LINE
8
0
10
140.100516
20
35.059124
11
140.384474
21
35.480289
0
LINE
8
0
10
140.384474
20
35.480289
11
140.488599
21
35.996038
0
LINE
8
0
10
140.488599
20
35.996038
11
140.488599
21
35.996038
0
LINE
8
0
10
52.013422
20
70.070378
11
51.899039
21
70.649332
0
LINE
8
0
10
51.899039
20
70.649332
11
51.598781
21
71.062870
0
LINE
8
0
10
51.598781
20
71.062870
11
51.174605
21
71.310993
0
LINE
8
0
10
51.174605
20
71.310993
11
50.688468
21
71.393701
0
LINE
8
0
10
50.688468
20
71.393701
11
50.202324
21
71.310993
0
LINE
8
0
10
50.202324
20
71.310993
11
49.778133
21
71.062870
0
LINE
8
0
10
49.778133
20
71.062870
11
49.477848
21
70.649332
0
LINE
8
0
10
49.477848
20
70.649332
11
49.363428
21
70.070378
0
LINE
8
0
10
49.363428
20
70.070378
11
49.467979
21
69.555167
0
LINE
8
0
10
49.467979
20
69.555167
11
49.752053
21
69.134546
0
LINE
8
0
10
49.752053
20
69.134546
11
50.173063
21
68.851011
0
LINE
8
0
10
50.173063
20
68.851011
11
50.688425
21
68.747056
0
LINE
8
0
10
50.688425
20
68.747056
11
51.203768
21
68.851011
0
LINE
8
0
10
51.203768
20
68.851011
11
51.624748
21
69.134546
0
LINE
8
0
10
51.624748
20
69.134546
11
51.908816
21
69.555167
0
LINE
8
0
10
51.908816
20
69.555167
11
52.013422
21
70.070378
0
LINE
8
0
10
52.013422
20
70.070378
11
52.013422
21
70.070378
0
LINE
8
0
10
60.402825
20
54.310645
11
60.288958
21
54.890332
0
LINE
8
0
10
60.288958
20
54.890332
11
59.988763
21
55.304393
0
LINE
8
0
10
59.988763
20
55.304393
11
59.564350
21
55.552830
0
LINE
8
0
10
59.564350
20
55.552830
11
59.077827
21
55.635643
0
LINE
8
0
10
59.077827
20
55.635643
11
58.591304
21
55.552830
0
LINE
8
0
10
58.591304
20
55.552830
11
58.166890
21
55.304393
0
LINE
8
0
10
58.166890
20
55.304393
11
57.866695
21
54.890332
0
LINE
8
0
10
57.866695
20
54.890332
11
57.752828
21
54.310645
0
LINE
8
0
10
57.752828
20
54.310645
11
57.856953
21
53.794897
0
LINE
8
0
10
57.856953
20
53.794897
11
58.140911
21
53.373731
0
LINE
8
0
10
58.140911
20
53.373731
11
58.562078
21
53.089773
0
LINE
8
0
10
58.562078
20
53.089773
11
59.077828
21
52.985648
0
LINE
8
0
10
59.077828
20
52.985648
11
59.593577
21
53.089773
0
LINE
8
0
10
59.593577
20
53.089773
11
60.014742
21
53.373731
0
LINE
8
0
10
60.014742
20
53.373731
11
60.298700
21
53.794897
0
LINE
8
0
10
60.298700
20
53.794897
11
60.402825
21
54.310645
0
LINE
8
0
10
60.402825
20
54.310645
11
60.402825
21
54.310645
0
LINE
8
0
10
72.892426
20
41.552858
11
72.778559
21
42.132544
0
LINE
8
0
10
72.778559
20
42.132544
11
72.478364
21
42.546606
0
LINE
8
0
10
72.478364
20
42.546606
11
72.053950
21
42.795043
0
LINE
8
0
10
72.053950
20
42.795043
11
71.567427
21
42.877855
0
LINE
8
0
10
71.567427
20
42.877855
11
71.080904
21
42.795043
0
LINE
8
0
10
71.080904
20
42.795043
11
70.656491
21
42.546606
0
LINE
8
0
10
70.656491
20
42.546606
11
70.356296
21
42.132544
0
LINE
8
0
10
70.356296
20
42.132544
11
70.242429
21
41.552858
0
LINE
8
0
10
70.242429
20
41.552858
11
70.346554
21
41.037109
0
LINE
8
0
10
70.346554
20
41.037109
11
70.630512
21
40.615943
0
LINE
8
0
10
70.630512
20
40.615943
11
71.051677
21
40.331985
0
LINE
8
0
10
71.051677
20
40.331985
11
71.567426
21
40.227861
0
LINE
8
0
10
71.567426
20
40.227861
11
72.083176
21
40.331985
0
LINE
8
0
10
72.083176
20
40.331985
11
72.504343
21
40.615943
0
LINE
8
0
10
72.504343
20
40.615943
11
72.788301
21
41.037109
0
LINE
8
0
10
72.788301
20
41.037109
11
72.892426
21
41.552858
0
LINE
8
0
10
72.892426
20
41.552858
11
72.892426
21
41.552858
0
LINE
8
0
10
154.893984
20
46.542891
11
154.780117
21
47.122577
0
LINE
8
0
10
154.780117
20
47.122577
11
154.479922
21
47.536639
0
LINE
8
0
10
154.479922
20
47.536639
11
154.055509
21
47.785076
0
LINE
8
0
10
154.055509
20
47.785076
11
153.568986
21
47.867888
0
LINE
8
0
10
153.568986
20
47.867888
11
153.082463
21
47.785076
0
LINE
8
0
10
153.082463
20
47.785076
11
152.658049
21
47.536639
0
LINE
8
0
10
152.658049
20
47.536639
11
152.357854
21
47.122577
0
LINE
8
0
10
152.357854
20
47.122577
11
152.243987
21
46.542891
0
LINE
8
0
10
152.243987
20
46.542891
11
152.348112
21
46.027142
0
LINE
8
0
10
152.348112
20
46.027142
11
152.632070
21
45.605976
0
LINE
8
0
10
152.632070
20
45.605976
11
153.053236
21
45.322018
0
LINE
8
0
10
153.053236
20
45.322018
11
153.568984
21
45.217893
0
LINE
8
0
10
153.568984
20
45.217893
11
154.084735
21
45.322018
0
LINE
8
0
10
154.084735
20
45.322018
11
154.505901
21
45.605976
0
LINE
8
0
10
154.505901
20
45.605976
11
154.789859
21
46.027142
0
LINE
8
0
10
154.789859
20
46.027142
11
154.893984
21
46.542891
0
LINE
8
0
10
154.893984
20
46.542891
11
154.893984
21
46.542891
0
LINE
8
0
10
165.744459
20
60.720989
11
165.630592
21
61.300675
0
LINE
8
0
10
165.630592
20
61.300675
11
165.330397
21
61.714737
0
LINE
8
0
10
165.330397
20
61.714737
11
164.905983
21
61.963174
0
LINE
8
0
10
164.905983
20
61.963174
11
164.419460
21
62.045986
0
LINE
8
0
10
164.419460
20
62.045986
11
163.932938
21
61.963174
0
LINE
8
0
10
163.932938
20
61.963174
11
163.508524
21
61.714737
0
LINE
8
0
10
163.508524
20
61.714737
11
163.208329
21
61.300675
0
LINE
8
0
10
163.208329
20
61.300675
11
163.094462
21
60.720989
0
LINE
8
0
10
163.094462
20
60.720989
11
163.198587
21
60.205240
0
LINE
8
0
10
163.198587
20
60.205240
11
163.482545
21
59.784074
0
LINE
8
0
10
163.482545
20
59.784074
11
163.903712
21
59.500116
0
LINE
8
0
10
163.903712
20
59.500116
11
164.419462
21
59.395991
0
LINE
8
0
10
164.419462
20
59.395991
11
164.935211
21
59.500116
0
LINE
8
0
10
164.935211
20
59.500116
11
165.356376
21
59.784074
0
LINE
8
0
10
165.356376
20
59.784074
11
165.640334
21
60.205240
0
LINE
8
0
10
165.640334
20
60.205240
11
165.744459
21
60.720989
0
LINE
8
0
10
165.744459
20
60.720989
11
165.744459
21
60.720989
0
LINE
8
0
10
154.669475
20
82.058404
11
154.433043
21
83.225438
0
LINE
8
0
10
154.433043
20
83.225438
11
153.789982
21
84.178311
0
LINE
8
0
10
153.789982
20
84.178311
11
152.836668
21
84.820683
0
LINE
8
0
10
152.836668
20
84.820683
11
151.669480
21
85.056216
0
LINE
8
0
10
151.669480
20
85.056216
11
150.502274
21
84.820683
0
LINE
8
0
10
150.502274
20
84.820683
11
149.548933
21
84.178311
0
LINE
8
0
10
149.548933
20
84.178311
11
148.905866
21
83.225438
0
LINE
8
0
10
148.905866
20
83.225438
11
148.669484
21
82.058404
0
LINE
8
0
10
148.669484
20
82.058404
11
148.905916
21
80.891370
0
LINE
8
0
10
148.905916
20
80.891370
11
149.548977
21
79.938497
0
LINE
8
0
10
149.548977
20
79.938497
11
150.502291
21
79.296124
0
LINE
8
0
10
150.502291
20
79.296124
11
151.669480
21
79.060591
0
LINE
8
0
10
151.669480
20
79.060591
11
152.836685
21
79.296124
0
LINE
8
0
10
152.836685
20
79.296124
11
153.790026
21
79.938497
0
LINE
8
0
10
153.790026
20
79.938497
11
154.433093
21
80.891370
0
LINE
8
0
10
154.433093
20
80.891370
11
154.669475
21
82.058404
0
LINE
8
0
10
154.669475
20
82.058404
11
154.669475
21
82.058404
0
LINE
8
0
10
77.465307
20
66.701538
11
77.228874
21
67.868572
0
LINE
8
0
10
77.228874
20
67.868572
11
76.585813
21
68.821445
0
LINE
8
0
10
76.585813
20
68.821445
11
75.632500
21
69.463818
0
LINE
8
0
10
75.632500
20
69.463818
11
74.465311
21
69.699351
0
LINE
8
0
10
74.465311
20
69.699351
11
73.298106
21
69.463818
0
LINE
8
0
10
73.298106
20
69.463818
11
72.344764
21
68.821445
0
LINE
8
0
10
72.344764
20
68.821445
11
71.701698
21
67.868572
0
LINE
8
0
10
71.701698
20
67.868572
11
71.465316
21
66.701538
0
LINE
8
0
10
71.465316
20
66.701538
11
71.701748
21
65.534504
0
LINE
8
0
10
71.701748
20
65.534504
11
72.344809
21
64.581631
0
LINE
8
0
10
72.344809
20
64.581631
11
73.298122
21
63.939259
0
LINE
8
0
10
73.298122
20
63.939259
11
74.465311
21
63.703725
0
LINE
8
0
10
74.465311
20
63.703725
11
75.632517
21
63.939259
0
LINE
8
0
10
75.632517
20
63.939259
11
76.585858
21
64.581631
0
LINE
8
0
10
76.585858
20
64.581631
11
77.228925
21
65.534504
0
LINE
8
0
10
77.228925
20
65.534504
11
77.465307
21
66.701538
0
LINE
8
0
10
77.465307
20
66.701538
11
77.465307
21
66.701538
0
LINE
8
0
10
115.688327
20
134.260495
11
115.452572
21
135.428229
0
LINE
8
0
10
115.452572
20
135.428229
11
114.809648
21
136.381812
0
LINE
8
0
10
114.809648
20
136.381812
11
113.856063
21
137.024736
0
LINE
8
0
10
113.856063
20
137.024736
11
112.688329
21
137.260490
0
LINE
8
0
10
112.688329
20
137.260490
11
111.520595
21
137.024736
0
LINE
8
0
10
111.520595
20
137.024736
11
110.567012
21
136.381812
0
LINE
8
0
10
110.567012
20
136.381812
11
109.924088
21
135.428229
0
LINE
8
0
10
109.924088
20
135.428229
11
109.688333
21
134.260495
0
LINE
8
0
10
109.688333
20
134.260495
11
109.924088
21
133.092761
0
LINE
8
0
10
109.924088
20
133.092761
11
110.567012
21
132.139177
0
LINE
8
0
10
110.567012
20
132.139177
11
111.520595
21
131.496254
0
LINE
8
0
10
111.520595
20
131.496254
11
112.688329
21
131.260499
0
LINE
8
0
10
112.688329
20
131.260499
11
113.856063
21
131.496254
0
LINE
8
0
10
113.856063
20
131.496254
11
114.809648
21
132.139177
0
LINE
8
0
10
114.809648
20
132.139177
11
115.452572
21
133.092761
0
LINE
8
0
10
115.452572
20
133.092761
11
115.688327
21
134.260495
0
LINE
8
0
10
115.688327
20
134.260495
11
115.688327
21
134.260495
0
LINE
8
0
10
129.836487
20
74.545861
11
129.431159
21
74.568393
0
LINE
8
0
10
129.431159
20
74.568393
11
129.169067
21
74.313657
0
LINE
8
0
10
129.169067
20
74.313657
11
129.131743
21
73.950069
0
LINE
8
0
10
129.131743
20
73.950069
11
129.400716
21
73.646043
0
LINE
8
0
10
129.400716
20
73.646043
11
157.548464
21
60.017552
0
LINE
8
0
10
157.548464
20
60.017552
11
157.954091
21
59.994839
0
LINE
8
0
10
157.954091
20
59.994839
11
158.216402
21
60.249759
0
LINE
8
0
10
158.216402
20
60.249759
11
158.253686
21
60.613530
0
LINE
8
0
10
158.253686
20
60.613530
11
157.984234
21
60.917370
0
LINE
8
0
10
157.984234
20
60.917370
11
129.836487
21
74.545861
0
LINE
8
0
10
133.906194
20
143.199106
11
133.870637
21
143.603609
0
LINE
8
0
10
133.870637
20
143.603609
11
133.580853
21
143.826889
0
LINE
8
0
10
133.580853
20
143.826889
11
133.215514
21
143.812086
0
LINE
8
0
10
133.215514
20
143.812086
11
132.953291
21
143.502337
0
LINE
8
0
10
132.953291
20
143.502337
11
123.469535
21
113.701422
0
LINE
8
0
10
123.469535
20
113.701422
11
123.505097
21
113.296957
0
LINE
8
0
10
123.505097
20
113.296957
11
123.794883
21
113.073634
0
LINE
8
0
10
123.794883
20
113.073634
11
124.160224
21
113.088265
0
LINE
8
0
10
124.160224
20
113.088265
11
124.422450
21
113.397662
0
LINE
8
0
10
124.422450
20
113.397662
11
133.906194
21
143.199106
0
LINE
8
0
10
72.599353
20
134.926712
11
72.216950
21
135.062030
0
LINE
8
0
10
72.216950
20
135.062030
11
71.893937
21
134.891456
0
LINE
8
0
10
71.893937
20
134.891456
11
71.755731
21
134.553305
0
LINE
8
0
10
71.755731
20
134.553305
11
71.927748
21
134.185888
0
LINE
8
0
10
71.927748
20
134.185888
11
95.095760
21
113.179789
0
LINE
8
0
10
95.095760
20
113.179789
11
95.478525
21
113.043492
0
LINE
8
0
10
95.478525
20
113.043492
11
95.802028
21
113.214133
0
LINE
8
0
10
95.802028
20
113.214133
11
95.940325
21
113.552809
0
LINE
8
0
10
95.940325
20
113.552809
11
95.767473
21
113.920616
0
LINE
8
0
10
95.767473
20
113.920616
11
72.599353
21
134.926712
0
LINE
8
0
10
133.357785
20
102.705273
11
133.169398
21
102.346001
0
LINE
8
0
10
133.169398
20
102.346001
11
133.292268
21
102.001987
0
LINE
8
0
10
133.292268
20
102.001987
11
133.607316
21
101.817088
0
LINE
8
0
10
133.607316
20
101.817088
11
133.995465
21
101.935159
0
LINE
8
0
10
133.995465
20
101.935159
11
158.085250
21
121.877328
0
LINE
8
0
10
158.085250
20
121.877328
11
158.274269
21
122.237061
0
LINE
8
0
10
158.274269
20
122.237061
11
158.151285
21
122.581623
0
LINE
8
0
10
158.151285
20
122.581623
11
157.835866
21
122.766565
0
LINE
8
0
10
157.835866
20
122.766565
11
157.447581
21
122.647442
0
LINE
8
0
10
157.447581
20
122.647442
11
133.357785
21
102.705273
0
LINE
8
0
10
55.051314
20
74.804943
11
83.783742
21
87.153000
0
LINE
8
0
10
83.783742
20
87.153000
11
84.066577
21
87.444587
0
LINE
8
0
10
84.066577
20
87.444587
11
84.045694
21
87.809717
0
LINE
8
0
10
84.045694
20
87.809717
11
83.795125
21
88.076095
0
LINE
8
0
10
83.795125
20
88.076095
11
83.388905
21
88.071426
0
LINE
8
0
10
83.388905
20
88.071426
11
54.656381
21
75.723369
0
LINE
8
0
10
54.656381
20
75.723369
11
54.373573
21
75.431924
0
LINE
8
0
10
54.373573
20
75.431924
11
54.394475
21
75.066842
0
LINE
8
0
10
54.394475
20
75.066842
11
54.645064
21
74.800416
0
LINE
8
0
10
54.645064
20
74.800416
11
55.051314
21
74.804943
0
LINE
8
0
10
55.051314
20
74.804943
11
55.051314
21
74.804943
0
LINE
8
0
10
116.943665
20
44.420120
11
116.735635
21
44.768990
0
LINE
8
0
10
116.735635
20
44.768990
11
116.377594
21
44.843743
0
LINE
8
0
10
116.377594
20
44.843743
11
116.055131
21
44.671036
0
LINE
8
0
10
116.055131
20
44.671036
11
115.953838
21
44.277526
0
LINE
8
0
10
115.953838
20
44.277526
11
117.327180
21
34.725921
0
LINE
8
0
10
117.327180
20
34.725921
11
117.535206
21
34.376975
0
LINE
8
0
10
117.535206
20
34.376975
11
117.893245
21
34.302197
0
LINE
8
0
10
117.893245
20
34.302197
11
118.215705
21
34.474930
0
LINE
8
0
10
118.215705
20
34.474930
11
118.316993
21
34.868515
0
LINE
8
0
10
118.316993
20
34.868515
11
116.943665
21
44.420120
0
LINE
8
0
10
168.774696
20
108.036835
11
168.250369
21
108.095134
0
LINE
8
0
10
168.250369
20
108.095134
11
167.968919
21
108.477950
0
LINE
8
0
10
167.968919
20
108.477950
11
167.998804
21
108.952230
0
LINE
8
0
10
167.998804
20
108.952230
11
168.408479
21
109.284921
0
LINE
8
0
10
168.408479
20
109.284921
11
176.043540
21
111.526357
0
LINE
8
0
10
176.043540
20
111.526357
11
174.487154
21
116.075507
0
LINE
8
0
10
174.487154
20
116.075507
11
172.626537
21
120.490229
0
LINE
8
0
10
172.626537
20
120.490229
11
170.470950
21
124.756112
0
LINE
8
0
10
170.470950
20
124.756112
11
168.029654
21
128.858745
0
LINE
8
0
10
168.029654
20
128.858745
11
165.311910
21
132.783719
0
LINE
8
0
10
165.311910
20
132.783719
11
162.326977
21
136.516624
0
LINE
8
0
10
162.326977
20
136.516624
11
159.084118
21
140.043048
0
LINE
8
0
10
159.084118
20
140.043048
11
155.592592
21
143.348582
0
LINE
8
0
10
155.592592
20
143.348582
11
150.381627
21
137.334700
0
LINE
8
0
10
150.381627
20
137.334700
11
149.908844
21
137.099317
0
LINE
8
0
10
149.908844
20
137.099317
11
149.464685
21
137.269163
0
LINE
8
0
10
149.464685
20
137.269163
11
149.233355
21
137.684621
0
LINE
8
0
10
149.233355
20
137.684621
11
149.399058
21
138.186073
0
LINE
8
0
10
149.399058
20
138.186073
11
154.610026
21
144.199822
0
LINE
8
0
10
154.610026
20
144.199822
11
150.841268
21
147.185403
0
LINE
8
0
10
150.841268
20
147.185403
11
146.889249
21
149.893407
0
LINE
8
0
10
146.889249
20
149.893407
11
142.769552
21
152.316717
0
LINE
8
0
10
142.769552
20
152.316717
11
138.497757
21
154.448220
0
LINE
8
0
10
138.497757
20
154.448220
11
134.089446
21
156.280801
0
LINE
8
0
10
134.089446
20
156.280801
11
129.560201
21
157.807345
0
LINE
8
0
10
129.560201
20
157.807345
11
124.925604
21
159.020737
0
LINE
8
0
10
124.925604
20
159.020737
11
120.201237
21
159.913862
0
LINE
8
0
10
120.201237
20
159.913862
11
119.068779
21
152.037483
0
LINE
8
0
10
119.068779
20
152.037483
11
118.798083
21
151.584624
0
LINE
8
0
10
118.798083
20
151.584624
11
118.333042
21
151.487557
0
LINE
8
0
10
118.333042
20
151.487557
11
117.914180
21
151.711697
0
LINE
8
0
10
117.914180
20
151.711697
11
117.782025
21
152.222458
0
LINE
8
0
10
117.782025
20
152.222458
11
118.914467
21
160.098837
0
LINE
8
0
10
118.914467
20
160.098837
11
114.129849
21
160.572902
0
LINE
8
0
10
114.129849
20
160.572902
11
109.341136
21
160.714380
0
LINE
8
0
10
109.341136
20
160.714380
11
104.565282
21
160.525708
0
LINE
8
0
10
104.565282
20
160.525708
11
99.819241
21
160.009323
0
LINE
8
0
10
99.819241
20
160.009323
11
95.119970
21
159.167663
0
LINE
8
0
10
95.119970
20
159.167663
11
90.484423
21
158.003165
0
LINE
8
0
10
90.484423
20
158.003165
11
85.929555
21
156.518266
0
LINE
8
0
10
85.929555
20
156.518266
11
81.472321
21
154.715404
0
LINE
8
0
10
81.472321
20
154.715404
11
84.777915
21
147.477164
0
LINE
8
0
10
84.777915
20
147.477164
11
84.795659
21
146.949328
0
LINE
8
0
10
84.795659
20
146.949328
11
84.456671
21
146.615872
0
LINE
8
0
10
84.456671
20
146.615872
11
83.982674
21
146.578056
0
LINE
8
0
10
83.982674
20
146.578056
11
83.595390
21
146.937137
0
LINE
8
0
10
83.595390
20
146.937137
11
80.289717
21
154.175377
0
LINE
8
0
10
80.289717
20
154.175377
11
76.008358
21
151.987434
0
LINE
8
0
10
76.008358
20
151.987434
11
71.903360
21
149.517485
0
LINE
8
0
10
71.903360
20
149.517485
11
67.987669
21
146.776746
0
LINE
8
0
10
67.987669
20
146.776746
11
64.274231
21
143.776434
0
LINE
8
0
10
64.274231
20
143.776434
11
60.775994
21
140.527767
0
LINE
8
0
10
60.775994
20
140.527767
11
57.505903
21
137.041961
0
LINE
8
0
10
57.505903
20
137.041961
11
54.476905
21
133.330233
0
LINE
8
0
10
54.476905
20
133.330233
11
51.701947
21
129.403801
0
LINE
8
0
10
51.701947
20
129.403801
11
58.396008
21
125.101700
0
LINE
8
0
10
58.396008
20
125.101700
11
58.697252
21
124.667185
0
LINE
8
0
10
58.697252
20
124.667185
11
58.592382
21
124.202916
0
LINE
8
0
10
58.592382
20
124.202916
11
58.213631
21
123.914645
0
LINE
8
0
10
58.213631
20
123.914645
11
57.693228
21
124.008126
0
LINE
8
0
10
57.693228
20
124.008126
11
50.999032
21
128.310227
0
LINE
8
0
10
50.999032
20
128.310227
11
48.580212
21
124.154911
0
LINE
8
0
10
48.580212
20
124.154911
11
46.462220
21
119.857715
0
LINE
8
0
10
46.462220
20
119.857715
11
44.649882
21
115.435077
0
LINE
8
0
10
44.649882
20
115.435077
11
43.148023
21
110.903439
0
LINE
8
0
10
43.148023
20
110.903439
11
41.961470
21
106.279239
0
LINE
8
0
10
41.961470
20
106.279239
11
41.095047
21
101.578917
0
LINE
8
0
10
41.095047
20
101.578917
11
40.553582
21
96.818913
0
LINE
8
0
10
40.553582
20
96.818913
11
40.341899
21
92.015667
0
LINE
8
0
10
40.341899
20
92.015667
11
48.299254
21
92.015670
0
LINE
8
0
10
48.299254
20
92.015670
11
48.786022
21
91.811882
0
LINE
8
0
10
48.786022
20
91.811882
11
48.948278
21
91.365219
0
LINE
8
0
10
48.948278
20
91.365219
11
48.786022
21
90.918563
0
LINE
8
0
10
48.786022
20
90.918563
11
48.299254
21
90.714798
0
LINE
8
0
10
48.299254
20
90.714798
11
40.341899
21
90.714795
0
LINE
8
0
10
40.341899
20
90.714795
11
40.553588
21
85.911564
0
LINE
8
0
10
40.553588
20
85.911564
11
41.095059
21
81.151579
0
LINE
8
0
10
41.095059
20
81.151579
11
41.961486
21
76.451288
0
LINE
8
0
10
41.961486
20
76.451288
11
43.148044
21
71.827138
0
LINE
8
0
10
43.148044
20
71.827138
11
44.649906
21
67.295578
0
LINE
8
0
10
44.649906
20
67.295578
11
46.462246
21
62.873054
0
LINE
8
0
10
46.462246
20
62.873054
11
48.580238
21
58.576014
0
LINE
8
0
10
48.580238
20
58.576014
11
50.999056
21
54.420905
0
LINE
8
0
10
50.999056
20
54.420905
11
57.693249
21
58.723009
0
LINE
8
0
10
57.693249
20
58.723009
11
58.213198
21
58.815341
0
LINE
8
0
10
58.213198
20
58.815341
11
58.591515
21
58.527053
0
LINE
8
0
10
58.591515
20
58.527053
11
58.696429
21
58.063116
0
LINE
8
0
10
58.696429
20
58.063116
11
58.396164
21
57.628506
0
LINE
8
0
10
58.396164
20
57.628506
11
51.701971
21
53.326404
0
LINE
8
0
10
51.701971
20
53.326404
11
54.368296
21
49.543513
0
LINE
8
0
10
54.368296
20
49.543513
11
57.277659
21
45.950719
0
LINE
8
0
10
57.277659
20
45.950719
11
60.419939
21
42.559748
0
LINE
8
0
10
60.419939
20
42.559748
11
63.785016
21
39.382322
0
LINE
8
0
10
63.785016
20
39.382322
11
68.995984
21
45.396204
0
LINE
8
0
10
68.995984
20
45.396204
11
69.468106
21
45.631358
0
LINE
8
0
10
69.468106
20
45.631358
11
69.912044
21
45.461409
0
LINE
8
0
10
69.912044
20
45.461409
11
70.143594
21
45.045947
0
LINE
8
0
10
70.143594
20
45.045947
11
69.978550
21
44.544564
0
LINE
8
0
10
69.978550
20
44.544564
11
64.767582
21
38.530685
0
LINE
8
0
10
64.767582
20
38.530685
11
69.377187
21
34.934931
0
LINE
8
0
10
69.377187
20
34.934931
11
74.264404
21
31.745472
0
LINE
8
0
10
74.264404
20
31.745472
11
79.402487
21
28.978208
0
LINE
8
0
10
79.402487
20
28.978208
11
84.764691
21
26.649038
0
LINE
8
0
10
84.764691
20
26.649038
11
84.798063
21
26.635015
0
LINE
8
0
10
84.798063
20
26.635015
11
86.033100
21
26.266503
0
LINE
8
0
10
86.033100
20
26.266503
11
87.253339
21
26.241429
0
LINE
8
0
10
87.253339
20
26.241429
11
88.408180
21
26.524146
0
LINE
8
0
10
88.408180
20
26.524146
11
89.447020
21
27.079012
0
LINE
8
0
10
89.447020
20
27.079012
11
90.319260
21
27.870379
0
LINE
8
0
10
90.319260
20
27.870379
11
90.974299
21
28.862604
0
LINE
8
0
10
90.974299
20
28.862604
11
91.361535
21
30.020042
0
LINE
8
0
10
91.361535
20
30.020042
11
91.430368
21
31.307048
0
LINE
8
0
10
91.430368
20
31.307048
11
91.015476
21
35.281913
0
LINE
8
0
10
91.015476
20
35.281913
11
90.969906
21
39.269601
0
LINE
8
0
10
90.969906
20
39.269601
11
91.292763
21
43.244459
0
LINE
8
0
10
91.292763
20
43.244459
11
91.983156
21
47.180835
0
LINE
8
0
10
91.983156
20
47.180835
11
92.287754
21
47.612269
0
LINE
8
0
10
92.287754
20
47.612269
11
92.759318
21
47.673350
0
LINE
8
0
10
92.759318
20
47.673350
11
93.159970
21
47.417262
0
LINE
8
0
10
93.159970
20
47.417262
11
93.251834
21
46.897188
0
LINE
8
0
10
93.251834
20
46.897188
11
92.581557
21
43.074050
0
LINE
8
0
10
92.581557
20
43.074050
11
92.268741
21
39.213541
0
LINE
8
0
10
92.268741
20
39.213541
11
92.314250
21
35.340646
0
LINE
8
0
10
92.314250
20
35.340646
11
92.718945
21
31.480350
0
LINE
8
0
10
92.718945
20
31.480350
11
92.724025
21
31.437408
0
LINE
8
0
10
92.724025
20
31.437408
11
92.643304
21
29.793770
0
LINE
8
0
10
92.643304
20
29.793770
11
92.155077
21
28.314001
0
LINE
8
0
10
92.155077
20
28.314001
11
91.323862
21
27.043912
0
LINE
8
0
10
91.323862
20
27.043912
11
90.214174
21
26.029318
0
LINE
8
0
10
90.214174
20
26.029318
11
88.890532
21
25.316031
0
LINE
8
0
10
88.890532
20
25.316031
11
87.417452
21
24.949864
0
LINE
8
0
10
87.417452
20
24.949864
11
85.859451
21
24.976630
0
LINE
8
0
10
85.859451
20
24.976630
11
84.281047
21
25.442142
0
LINE
8
0
10
84.281047
20
25.442142
11
79.474930
21
27.500909
0
LINE
8
0
10
79.474930
20
27.500909
11
74.878468
21
29.883837
0
LINE
8
0
10
74.878468
20
29.883837
11
70.503395
21
32.574639
0
LINE
8
0
10
70.503395
20
32.574639
11
66.361441
21
35.557022
0
LINE
8
0
10
66.361441
20
35.557022
11
62.464341
21
38.814698
0
LINE
8
0
10
62.464341
20
38.814698
11
58.823824
21
42.331377
0
LINE
8
0
10
58.823824
20
42.331377
11
55.451625
21
46.090767
0
LINE
8
0
10
55.451625
20
46.090767
11
52.359476
21
50.076579
0
LINE
8
0
10
52.359476
20
50.076579
11
49.559107
21
54.272523
0
LINE
8
0
10
49.559107
20
54.272523
11
47.062253
21
58.662308
0
LINE
8
0
10
47.062253
20
58.662308
11
44.880644
21
63.229645
0
LINE
8
0
10
44.880644
20
63.229645
11
43.026014
21
67.958243
0
LINE
8
0
10
43.026014
20
67.958243
11
41.510094
21
72.831812
0
LINE
8
0
10
41.510094
20
72.831812
11
40.344617
21
77.834063
0
LINE
8
0
10
40.344617
20
77.834063
11
39.541316
21
82.948705
0
LINE
8
0
10
39.541316
20
82.948705
11
39.111921
21
88.159447
0
LINE
8
0
10
39.111921
20
88.159447
11
39.067333
21
93.387639
0
LINE
8
0
10
39.067333
20
93.387639
11
39.403824
21
98.553986
0
LINE
8
0
10
39.403824
20
98.553986
11
40.111185
21
103.641206
0
LINE
8
0
10
40.111185
20
103.641206
11
41.179207
21
108.632016
0
LINE
8
0
10
41.179207
20
108.632016
11
42.597682
21
113.509136
0
LINE
8
0
10
42.597682
20
113.509136
11
44.356403
21
118.255282
0
LINE
8
0
10
44.356403
20
118.255282
11
46.445159
21
122.853174
0
LINE
8
0
10
46.445159
20
122.853174
11
48.853743
21
127.285529
0
LINE
8
0
10
48.853743
20
127.285529
11
51.571947
21
131.535066
0
LINE
8
0
10
51.571947
20
131.535066
11
54.589562
21
135.584503
0
LINE
8
0
10
54.589562
20
135.584503
11
57.896379
21
139.416557
0
LINE
8
0
10
57.896379
20
139.416557
11
61.482190
21
143.013947
0
LINE
8
0
10
61.482190
20
143.013947
11
65.336786
21
146.359392
0
LINE
8
0
10
65.336786
20
146.359392
11
69.449960
21
149.435609
0
LINE
8
0
10
69.449960
20
149.435609
11
73.811502
21
152.225316
0
LINE
8
0
10
73.811502
20
152.225316
11
78.411204
21
154.711231
0
LINE
8
0
10
78.411204
20
154.711231
11
83.181427
21
156.851796
0
LINE
8
0
10
83.181427
20
156.851796
11
88.048049
21
158.618574
0
LINE
8
0
10
88.048049
20
158.618574
11
92.991144
21
160.013967
0
LINE
8
0
10
92.991144
20
160.013967
11
97.990783
21
161.040377
0
LINE
8
0
10
97.990783
20
161.040377
11
103.027040
21
161.700207
0
LINE
8
0
10
103.027040
20
161.700207
11
108.079987
21
161.995857
0
LINE
8
0
10
108.079987
20
161.995857
11
113.129696
21
161.929730
0
LINE
8
0
10
113.129696
20
161.929730
11
118.156240
21
161.504229
0
LINE
8
0
10
118.156240
20
161.504229
11
123.139691
21
160.721754
0
LINE
8
0
10
123.139691
20
160.721754
11
128.060122
21
159.584709
0
LINE
8
0
10
128.060122
20
159.584709
11
132.897605
21
158.095494
0
LINE
8
0
10
132.897605
20
158.095494
11
137.632213
21
156.256512
0
LINE
8
0
10
137.632213
20
156.256512
11
142.244019
21
154.070165
0
LINE
8
0
10
142.244019
20
154.070165
11
146.713094
21
151.538855
0
LINE
8
0
10
146.713094
20
151.538855
11
151.019511
21
148.664984
0
LINE
8
0
10
151.019511
20
148.664984
11
155.143343
21
145.450953
0
LINE
8
0
10
155.143343
20
145.450953
11
159.019366
21
141.942013
0
LINE
8
0
10
159.019366
20
141.942013
11
162.591761
21
138.194636
0
LINE
8
0
10
162.591761
20
138.194636
11
165.854729
21
134.228039
0
LINE
8
0
10
165.854729
20
134.228039
11
168.802468
21
130.061443
0
LINE
8
0
10
168.802468
20
130.061443
11
171.429177
21
125.714067
0
LINE
8
0
10
171.429177
20
125.714067
11
173.729057
21
121.205128
0
LINE
8
0
10
173.729057
20
121.205128
11
175.696305
21
116.553847
0
LINE
8
0
10
175.696305
20
116.553847
11
177.325122
21
111.779442
0
LINE
8
0
10
177.325122
20
111.779442
11
178.609707
21
106.901132
0
LINE
8
0
10
178.609707
20
106.901132
11
179.544259
21
101.938137
0
LINE
8
0
10
179.544259
20
101.938137
11
180.122977
21
96.909674
0
LINE
8
0
10
180.122977
20
96.909674
11
180.340061
21
91.834963
0
LINE
8
0
10
180.340061
20
91.834963
11
180.189710
21
86.733224
0
LINE
8
0
10
180.189710
20
86.733224
11
179.666123
21
81.623674
0
LINE
8
0
10
179.666123
20
81.623674
11
178.763500
21
76.525534
0
LINE
8
0
10
178.763500
20
76.525534
11
177.476040
21
71.458021
0
LINE
8
0
10
177.476040
20
71.458021
11
177.163414
21
71.072894
0
LINE
8
0
10
177.163414
20
71.072894
11
176.670104
21
71.020898
0
LINE
8
0
10
176.670104
20
71.020898
11
168.408823
21
73.445544
0
LINE
8
0
10
168.408823
20
73.445544
11
167.998330
21
73.778101
0
LINE
8
0
10
167.998330
20
73.778101
11
167.968332
21
74.252838
0
LINE
8
0
10
167.968332
20
74.252838
11
168.250168
21
74.635950
0
LINE
8
0
10
168.250168
20
74.635950
11
168.775173
21
74.693630
0
LINE
8
0
10
168.775173
20
74.693630
11
176.409763
21
72.452255
0
LINE
8
0
10
176.409763
20
72.452255
11
177.559934
21
77.120525
0
LINE
8
0
10
177.559934
20
77.120525
11
178.381485
21
81.840237
0
LINE
8
0
10
178.381485
20
81.840237
11
178.874415
21
86.594261
0
LINE
8
0
10
178.874415
20
86.594261
11
179.038724
21
91.365470
0
LINE
8
0
10
179.038724
20
91.365470
11
178.874413
21
96.136736
0
LINE
8
0
10
178.874413
20
96.136736
11
178.381481
21
100.890930
0
LINE
8
0
10
178.381481
20
100.890930
11
177.559930
21
105.610926
0
LINE
8
0
10
177.559930
20
105.610926
11
176.409757
21
110.279594
0
LINE
8
0
10
176.409757
20
110.279594
11
168.774696
21
108.036835
0
LINE
8
0
10
174.897560
20
91.638814
11
174.821972
21
91.240103
0
LINE
8
0
10
174.821972
20
91.240103
11
175.039867
21
90.946751
0
LINE
8
0
10
175.039867
20
90.946751
11
175.395258
21
90.861716
0
LINE
8
0
10
175.395258
20
90.861716
11
175.732155
21
91.087955
0
LINE
8
0
10
175.732155
20
91.087955
11
176.519479
21
92.774026
0
LINE
8
0
10
176.519479
20
92.774026
11
176.758160
21
94.497231
0
LINE
8
0
10
176.758160
20
94.497231
11
176.504990
21
96.166532
0
LINE
8
0
10
176.504990
20
96.166532
11
175.816762
21
97.690892
0
LINE
8
0
10
175.816762
20
97.690892
11
174.750271
21
98.979273
0
LINE
8
0
10
174.750271
20
98.979273
11
173.362309
21
99.940638
0
LINE
8
0
10
173.362309
20
99.940638
11
171.709670
21
100.483949
0
LINE
8
0
10
171.709670
20
100.483949
11
169.849147
21
100.518169
0
LINE
8
0
10
169.849147
20
100.518169
11
168.716351
21
100.877377
0
LINE
8
0
10
168.716351
20
100.877377
11
167.699819
21
101.429114
0
LINE
8
0
10
167.699819
20
101.429114
11
166.816930
21
102.148645
0
LINE
8
0
10
166.816930
20
102.148645
11
166.085064
21
103.011236
0
LINE
8
0
10
166.085064
20
103.011236
11
165.521599
21
103.992154
0
LINE
8
0
10
165.521599
20
103.992154
11
165.143914
21
105.066664
0
LINE
8
0
10
165.143914
20
105.066664
11
164.969389
21
106.210033
0
LINE
8
0
10
164.969389
20
106.210033
11
165.015403
21
107.397526
0
LINE
8
0
10
165.015403
20
107.397526
11
164.911055
21
107.790323
0
LINE
8
0
10
164.911055
20
107.790323
11
164.587225
21
107.960254
0
LINE
8
0
10
164.587225
20
107.960254
11
164.229729
21
107.882247
0
LINE
8
0
10
164.229729
20
107.882247
11
164.024384
21
107.531233
0
LINE
8
0
10
164.024384
20
107.531233
11
163.971650
21
106.138833
0
LINE
8
0
10
163.971650
20
106.138833
11
164.179722
21
104.799442
0
LINE
8
0
10
164.179722
20
104.799442
11
164.627670
21
103.542428
0
LINE
8
0
10
164.627670
20
103.542428
11
165.294563
21
102.397161
0
LINE
8
0
10
165.294563
20
102.397161
11
166.159471
21
101.393012
0
LINE
8
0
10
166.159471
20
101.393012
11
167.201463
21
100.559348
0
LINE
8
0
10
167.201463
20
100.559348
11
168.399608
21
99.925541
0
LINE
8
0
10
168.399608
20
99.925541
11
169.732976
21
99.520959
0
LINE
8
0
10
169.732976
20
99.520959
11
169.902659
21
99.516249
0
LINE
8
0
10
169.902659
20
99.516249
11
171.470377
21
99.508965
0
LINE
8
0
10
171.470377
20
99.508965
11
172.866570
21
99.067862
0
LINE
8
0
10
172.866570
20
99.067862
11
174.042235
21
98.270222
0
LINE
8
0
10
174.042235
20
98.270222
11
174.948370
21
97.193327
0
LINE
8
0
10
174.948370
20
97.193327
11
175.535972
21
95.914457
0
LINE
8
0
10
175.535972
20
95.914457
11
175.756040
21
94.510895
0
LINE
8
0
10
175.756040
20
94.510895
11
175.559570
21
93.059921
0
LINE
8
0
10
175.559570
20
93.059921
11
174.897560
21
91.638817
0
LINE
8
0
10
174.897560
20
91.638817
11
174.897560
21
91.638814
0
LINE
8
0
10
166.778701
20
91.862154
11
135.731285
21
88.108451
0
LINE
8
0
10
135.731285
20
88.108451
11
135.377748
21
87.908478
0
LINE
8
0
10
135.377748
20
87.908478
11
135.294905
21
87.552292
0
LINE
8
0
10
135.294905
20
87.552292
11
135.460255
21
87.226067
0
LINE
8
0
10
135.460255
20
87.226067
11
135.851298
21
87.115974
0
LINE
8
0
10
135.851298
20
87.115974
11
166.898763
21
90.868351
0
LINE
8
0
10
166.898763
20
90.868351
11
167.251664
21
91.069025
0
LINE
8
0
10
167.251664
20
91.069025
11
167.334338
21
91.425192
0
LINE
8
0
10
167.334338
20
91.425192
11
167.169209
21
91.751389
0
LINE
8
0
10
167.169209
20
91.751389
11
166.778701
21
91.862154
0
LINE
8
0
10
166.778701
20
91.862154
11
166.778701
21
91.862154
0
LINE
8
0
10
110.171599
20
117.866040
11
102.038310
21
148.063525
0
LINE
8
0
10
102.038310
20
148.063525
11
101.789791
21
148.384396
0
LINE
8
0
10
101.789791
20
148.384396
11
101.425679
21
148.415594
0
LINE
8
0
10
101.425679
20
148.415594
11
101.126488
21
148.205739
0
LINE
8
0
10
101.126488
20
148.205739
11
101.072733
21
147.803448
0
LINE
8
0
10
101.072733
20
147.803448
11
109.206011
21
117.606357
0
LINE
8
0
10
109.206011
20
117.606357
11
109.454284
21
117.284162
0
LINE
8
0
10
109.454284
20
117.284162
11
109.819036
21
117.252675
0
LINE
8
0
10
109.819036
20
117.252675
11
110.118673
21
117.462950
0
LINE
8
0
10
110.118673
20
117.462950
11
110.171599
21
117.866040
0
LINE
8
0
10
110.171599
20
117.866040
11
110.171599
21
117.866040
0
LINE
8
0
10
54.771631
20
106.973037
11
85.618710
21
101.826903
0
LINE
8
0
10
85.618710
20
101.826903
11
86.013667
21
101.919829
0
LINE
8
0
10
86.013667
20
101.919829
11
86.193236
21
102.238058
0
LINE
8
0
10
86.193236
20
102.238058
11
86.126679
21
102.597366
0
LINE
8
0
10
86.126679
20
102.597366
11
85.783256
21
102.813533
0
LINE
8
0
10
85.783256
20
102.813533
11
54.936061
21
107.959667
0
LINE
8
0
10
54.936061
20
107.959667
11
54.541059
21
107.866738
0
LINE
8
0
10
54.541059
20
107.866738
11
54.361477
21
107.548448
0
LINE
8
0
10
54.361477
20
107.548448
11
54.428079
21
107.189110
0
LINE
8
0
10
54.428079
20
107.189110
11
54.771631
21
106.973037
0
LINE
8
0
10
54.771631
20
106.973037
11
54.771631
21
106.973037
0
LINE
8
0
10
107.335407
20
92.209017
11
56.943347
21
99.453805
0
LINE
8
0
10
56.943347
20
99.453805
11
54.999207
21
101.437077
0
LINE
8
0
10
54.999207
20
101.437077
11
53.388979
21
103.680184
0
LINE
8
0
10
53.388979
20
103.680184
11
52.137894
21
106.141665
0
LINE
8
0
10
52.137894
20
106.141665
11
51.271182
21
108.780056
0
LINE
8
0
10
51.271182
20
108.780056
11
51.029897
21
109.106423
0
LINE
8
0
10
51.029897
20
109.106423
11
50.666547
21
109.145748
0
LINE
8
0
10
50.666547
20
109.145748
11
50.362726
21
108.942616
0
LINE
8
0
10
50.362726
20
108.942616
11
50.300028
21
108.541614
0
LINE
8
0
10
50.300028
20
108.541614
11
51.229377
21
105.722136
0
LINE
8
0
10
51.229377
20
105.722136
11
52.574477
21
103.095295
0
LINE
8
0
10
52.574477
20
103.095295
11
54.307461
21
100.706498
0
LINE
8
0
10
54.307461
20
100.706498
11
56.400465
21
98.601152
0
LINE
8
0
10
56.400465
20
98.601152
11
56.655507
21
98.485166
0
LINE
8
0
10
56.655507
20
98.485166
11
107.193093
21
91.219339
0
LINE
8
0
10
107.193093
20
91.219339
11
107.252966
21
90.802105
0
LINE
8
0
10
107.252966
20
90.802105
11
60.943342
21
69.653591
0
LINE
8
0
10
60.943342
20
69.653591
11
58.235695
21
70.270854
0
LINE
8
0
10
58.235695
20
70.270854
11
55.668424
21
71.287275
0
LINE
8
0
10
55.668424
20
71.287275
11
53.285188
21
72.681600
0
LINE
8
0
10
53.285188
20
72.681600
11
51.129643
21
74.432574
0
LINE
8
0
10
51.129643
20
74.432574
11
50.750017
21
74.577222
0
LINE
8
0
10
50.750017
20
74.577222
11
50.422786
21
74.413794
0
LINE
8
0
10
50.422786
20
74.413794
11
50.276964
21
74.078346
0
LINE
8
0
10
50.276964
20
74.078346
11
50.441566
21
73.706937
0
LINE
8
0
10
50.441566
20
73.706937
11
52.747710
21
71.837485
0
LINE
8
0
10
52.747710
20
71.837485
11
55.299458
21
70.354861
0
LINE
8
0
10
55.299458
20
70.354861
11
58.048820
21
69.282199
0
LINE
8
0
10
58.048820
20
69.282199
11
60.947803
21
68.642633
0
LINE
8
0
10
60.947803
20
68.642633
11
61.225083
21
68.682736
0
LINE
8
0
10
61.225083
20
68.682736
11
107.668379
21
89.893527
0
LINE
8
0
10
107.668379
20
89.893527
11
107.706858
21
89.841369
0
LINE
8
0
10
107.706858
20
89.841369
11
71.936996
21
48.560913
0
LINE
8
0
10
71.936996
20
48.560913
11
71.817636
21
48.180434
0
LINE
8
0
10
71.817636
20
48.180434
11
72.014362
21
47.833548
0
LINE
8
0
10
72.014362
20
47.833548
11
78.691860
21
42.814670
0
LINE
8
0
10
78.691860
20
42.814670
11
78.772251
21
42.765820
0
LINE
8
0
10
78.772251
20
42.765820
11
80.337718
21
41.189097
0
LINE
8
0
10
80.337718
20
41.189097
11
81.688555
21
39.435896
0
LINE
8
0
10
81.688555
20
39.435896
11
82.810136
21
37.527878
0
LINE
8
0
10
82.810136
20
37.527878
11
83.687833
21
35.486705
0
LINE
8
0
10
83.687833
20
35.486705
11
83.871205
21
35.124718
0
LINE
8
0
10
83.871205
20
35.124718
11
84.222799
21
35.025230
0
LINE
8
0
10
84.222799
20
35.025230
11
84.556248
21
35.174656
0
LINE
8
0
10
84.556248
20
35.174656
11
84.685184
21
35.559410
0
LINE
8
0
10
84.685184
20
35.559410
11
83.760121
21
37.786852
0
LINE
8
0
10
83.760121
20
37.786852
11
82.561152
21
39.868193
0
LINE
8
0
10
82.561152
20
39.868193
11
81.104927
21
41.778407
0
LINE
8
0
10
81.104927
20
41.778407
11
79.408095
21
43.492466
0
LINE
8
0
10
79.408095
20
43.492466
11
79.292697
21
43.613888
0
LINE
8
0
10
79.292697
20
43.613888
11
73.043794
21
48.312266
0
LINE
8
0
10
73.043794
20
48.312266
11
108.756959
21
89.526362
0
LINE
8
0
10
108.756959
20
89.526362
11
108.877810
21
89.889466
0
LINE
8
0
10
108.877810
20
89.889466
11
108.706516
21
90.231672
0
LINE
8
0
10
108.706516
20
90.231672
11
108.390435
21
90.605942
0
LINE
8
0
10
108.390435
20
90.605942
11
108.221957
21
91.026832
0
LINE
8
0
10
108.221957
20
91.026832
11
108.283384
21
91.889472
0
LINE
8
0
10
108.283384
20
91.889472
11
108.801951
21
92.581590
0
LINE
8
0
10
108.801951
20
92.581590
11
109.204895
21
92.789328
0
LINE
8
0
10
109.204895
20
92.789328
11
109.688807
21
92.865185
0
LINE
8
0
10
109.688807
20
92.865185
11
110.172717
21
92.789328
0
LINE
8
0
10
110.172717
20
92.789328
11
110.575661
21
92.581590
0
LINE
8
0
10
110.575661
20
92.581590
11
111.094227
21
91.889472
0
LINE
8
0
10
111.094227
20
91.889472
11
111.155654
21
91.026832
0
LINE
8
0
10
111.155654
20
91.026832
11
110.987176
21
90.605942
0
LINE
8
0
10
110.987176
20
90.605942
11
110.671095
21
90.231672
0
LINE
8
0
10
110.671095
20
90.231672
11
110.511209
21
89.965663
0
LINE
8
0
10
110.511209
20
89.965663
11
110.539044
21
89.656315
0
LINE
8
0
10
110.539044
20
89.656315
11
120.184198
21
67.179989
0
LINE
8
0
10
120.184198
20
67.179989
11
120.475665
21
66.897171
0
LINE
8
0
10
120.475665
20
66.897171
11
120.840850
21
66.917911
0
LINE
8
0
10
120.840850
20
66.917911
11
121.107448
21
67.168262
0
LINE
8
0
10
121.107448
20
67.168262
11
121.103153
21
67.574278
0
LINE
8
0
10
121.103153
20
67.574278
11
111.590426
21
89.742852
0
LINE
8
0
10
111.590426
20
89.742852
11
111.709229
21
89.893527
0
LINE
8
0
10
111.709229
20
89.893527
11
158.018860
21
68.743696
0
LINE
8
0
10
158.018860
20
68.743696
11
159.325522
21
66.293391
0
LINE
8
0
10
159.325522
20
66.293391
11
160.238579
21
63.687676
0
LINE
8
0
10
160.238579
20
63.687676
11
160.745512
21
60.973498
0
LINE
8
0
10
160.745512
20
60.973498
11
160.833796
21
58.197809
0
LINE
8
0
10
160.833796
20
58.197809
11
160.973080
21
57.816183
0
LINE
8
0
10
160.973080
20
57.816183
11
161.310881
21
57.675901
0
LINE
8
0
10
161.310881
20
57.675901
11
161.659888
21
57.785367
0
LINE
8
0
10
161.659888
20
57.785367
11
161.832790
21
58.152986
0
LINE
8
0
10
161.832790
20
58.152986
11
161.735425
21
61.120083
0
LINE
8
0
10
161.735425
20
61.120083
11
161.184877
21
64.019477
0
LINE
8
0
10
161.184877
20
64.019477
11
160.195093
21
66.799750
0
LINE
8
0
10
160.195093
20
66.799750
11
158.780015
21
69.409482
0
LINE
8
0
10
158.780015
20
69.409482
11
158.567931
21
69.592634
0
LINE
8
0
10
158.567931
20
69.592634
11
112.124642
21
90.802102
0
LINE
8
0
10
112.124642
20
90.802102
11
112.184515
21
91.219339
0
LINE
8
0
10
112.184515
20
91.219339
11
162.576594
21
98.464124
0
LINE
8
0
10
162.576594
20
98.464124
11
165.000679
21
97.109157
0
LINE
8
0
10
165.000679
20
97.109157
11
167.177608
21
95.410688
0
LINE
8
0
10
167.177608
20
95.410688
11
169.071483
21
93.401432
0
LINE
8
0
10
169.071483
20
93.401432
11
170.646407
21
91.114101
0
LINE
8
0
10
170.646407
20
91.114101
11
170.969904
21
90.868358
0
LINE
8
0
10
170.969904
20
90.868358
11
171.329923
21
90.932975
0
LINE
8
0
10
171.329923
20
90.932975
11
171.564345
21
91.213752
0
LINE
8
0
10
171.564345
20
91.213752
11
171.511048
21
91.616491
0
LINE
8
0
10
171.511048
20
91.616491
11
169.825006
21
94.059932
0
LINE
8
0
10
169.825006
20
94.059932
11
167.794324
21
96.201409
0
LINE
8
0
10
167.794324
20
96.201409
11
165.458535
21
98.005204
0
LINE
8
0
10
165.458535
20
98.005204
11
162.857168
21
99.435601
0
LINE
8
0
10
162.857168
20
99.435601
11
162.579771
21
99.474847
0
LINE
8
0
10
162.579771
20
99.474847
11
112.042201
21
92.209017
0
LINE
8
0
10
112.042201
20
92.209017
11
111.867433
21
92.590863
0
LINE
8
0
10
111.867433
20
92.590863
11
150.342823
21
125.930625
0
LINE
8
0
10
150.342823
20
125.930625
11
153.114704
21
126.101246
0
LINE
8
0
10
153.114704
20
126.101246
11
155.864346
21
125.849305
0
LINE
8
0
10
155.864346
20
125.849305
11
158.543873
21
125.182904
0
LINE
8
0
10
158.543873
20
125.182904
11
161.105409
21
124.110144
0
LINE
8
0
10
161.105409
20
124.110144
11
161.510270
21
124.078739
0
LINE
8
0
10
161.510270
20
124.078739
11
161.778156
21
124.327882
0
LINE
8
0
10
161.778156
20
124.327882
11
161.823610
21
124.690681
0
LINE
8
0
10
161.823610
20
124.690681
11
161.561177
21
125.000241
0
LINE
8
0
10
161.561177
20
125.000241
11
158.821763
21
126.144251
0
LINE
8
0
10
158.821763
20
126.144251
11
155.955676
21
126.847907
0
LINE
8
0
10
155.955676
20
126.847907
11
153.015480
21
127.102535
0
LINE
8
0
10
153.015480
20
127.102535
11
150.053740
21
126.899457
0
LINE
8
0
10
150.053740
20
126.899457
11
149.799081
21
126.782609
0
LINE
8
0
10
149.799081
20
126.782609
11
111.212572
21
93.347089
0
LINE
8
0
10
111.212572
20
93.347089
11
110.858650
21
93.574585
0
LINE
8
0
10
110.858650
20
93.574585
11
125.201734
21
142.422809
0
LINE
8
0
10
125.201734
20
142.422809
11
127.441331
21
144.064887
0
LINE
8
0
10
127.441331
20
144.064887
11
129.890680
21
145.339484
0
LINE
8
0
10
129.890680
20
145.339484
11
132.505123
21
146.227524
0
LINE
8
0
10
132.505123
20
146.227524
11
135.240002
21
146.709932
0
LINE
8
0
10
135.240002
20
146.709932
11
135.597165
21
146.902398
0
LINE
8
0
10
135.597165
20
146.902398
11
135.687739
21
147.256341
0
LINE
8
0
10
135.687739
20
147.256341
11
135.529994
21
147.585880
0
LINE
8
0
10
135.529994
20
147.585880
11
135.142197
21
147.705134
0
LINE
8
0
10
135.142197
20
147.705134
11
132.219157
21
147.186498
0
LINE
8
0
10
132.219157
20
147.186498
11
129.427626
21
146.228928
0
LINE
8
0
10
129.427626
20
146.228928
11
126.816514
21
144.853544
0
LINE
8
0
10
126.816514
20
144.853544
11
124.434732
21
143.081467
0
LINE
8
0
10
124.434732
20
143.081467
11
124.283657
21
142.845599
0
LINE
8
0
10
124.283657
20
142.845599
11
109.899158
21
93.857004
0
LINE
8
0
10
109.899158
20
93.857004
11
109.478450
21
93.857004
0
LINE
8
0
10
109.478450
20
93.857004
11
95.135363
21
142.704566
0
LINE
8
0
10
95.135363
20
142.704566
11
96.131642
21
145.296767
0
LINE
8
0
10
96.131642
20
145.296767
11
97.503059
21
147.693234
0
LINE
8
0
10
97.503059
20
147.693234
11
99.222355
21
149.853773
0
LINE
8
0
10
99.222355
20
149.853773
11
101.262272
21
151.738186
0
LINE
8
0
10
101.262272
20
151.738186
11
101.459970
21
152.093304
0
LINE
8
0
10
101.459970
20
152.093304
11
101.344940
21
152.440442
0
LINE
8
0
10
101.344940
20
152.440442
11
101.033494
21
152.632538
0
LINE
8
0
10
101.033494
20
152.632538
11
100.641944
21
152.522527
0
LINE
8
0
10
100.641944
20
152.522527
11
98.463321
21
150.505908
0
LINE
8
0
10
98.463321
20
150.505908
11
96.632637
21
148.191133
0
LINE
8
0
10
96.632637
20
148.191133
11
95.179619
21
145.622412
0
LINE
8
0
10
95.179619
20
145.622412
11
94.133993
21
142.843956
0
LINE
8
0
10
94.133993
20
142.843956
11
94.134522
21
142.563842
0
LINE
8
0
10
94.134522
20
142.563842
11
108.518998
21
93.574585
0
LINE
8
0
10
108.518998
20
93.574585
11
108.165076
21
93.347089
0
LINE
8
0
10
108.165076
20
93.347089
11
69.689636
21
126.686454
0
LINE
8
0
10
69.689636
20
126.686454
11
69.126268
21
129.405783
0
LINE
8
0
10
69.126268
20
129.405783
11
68.984328
21
132.163264
0
LINE
8
0
10
68.984328
20
132.163264
11
69.262608
21
134.910345
0
LINE
8
0
10
69.262608
20
134.910345
11
69.959904
21
137.598477
0
LINE
8
0
10
69.959904
20
137.598477
11
69.933468
21
138.003581
0
LINE
8
0
10
69.933468
20
138.003581
11
69.649013
21
138.233164
0
LINE
8
0
10
69.649013
20
138.233164
11
69.283529
21
138.226517
0
LINE
8
0
10
69.283529
20
138.226517
11
69.014004
21
137.922929
0
LINE
8
0
10
69.014004
20
137.922929
11
68.271498
21
135.048589
0
LINE
8
0
10
68.271498
20
135.048589
11
67.982891
21
132.111534
0
LINE
8
0
10
67.982891
20
132.111534
11
68.149289
21
129.165028
0
LINE
8
0
10
68.149289
20
129.165028
11
68.771800
21
126.262336
0
LINE
8
0
10
68.771800
20
126.262336
11
68.923678
21
126.026907
0
LINE
8
0
10
68.923678
20
126.026907
11
107.510175
21
92.590860
0
LINE
8
0
10
107.510175
20
92.590860
11
107.335407
21
92.209017
0
LINE
8
0
10
107.335407
20
92.209017
11
107.335407
21
92.209017
0
LINE
8
0
10
106.351534
20
64.984971
11
106.429508
21
65.383287
0
LINE
8
0
10
106.429508
20
65.383287
11
106.213291
21
65.677940
0
LINE
8
0
10
106.213291
20
65.677940
11
105.858346
21
65.765027
0
LINE
8
0
10
105.858346
20
65.765027
11
105.520135
21
65.540643
0
LINE
8
0
10
105.520135
20
65.540643
11
103.668038
21
62.566342
0
LINE
8
0
10
103.668038
20
62.566342
11
102.016232
21
59.488643
0
LINE
8
0
10
102.016232
20
59.488643
11
100.568242
21
56.317760
0
LINE
8
0
10
100.568242
20
56.317760
11
99.327592
21
53.063910
0
LINE
8
0
10
99.327592
20
53.063910
11
98.297806
21
49.737305
0
LINE
8
0
10
98.297806
20
49.737305
11
97.482409
21
46.348161
0
LINE
8
0
10
97.482409
20
46.348161
11
96.884924
21
42.906693
0
LINE
8
0
10
96.884924
20
42.906693
11
96.508877
21
39.423116
0
LINE
8
0
10
96.508877
20
39.423116
11
96.486608
21
38.087662
0
LINE
8
0
10
96.486608
20
38.087662
11
96.631420
21
36.775943
0
LINE
8
0
10
96.631420
20
36.775943
11
96.936920
21
35.502190
0
LINE
8
0
10
96.936920
20
35.502190
11
97.396715
21
34.280636
0
LINE
8
0
10
97.396715
20
34.280636
11
98.004413
21
33.125514
0
LINE
8
0
10
98.004413
20
33.125514
11
98.753622
21
32.051056
0
LINE
8
0
10
98.753622
20
32.051056
11
99.637949
21
31.071496
0
LINE
8
0
10
99.637949
20
31.071496
11
100.651001
21
30.201064
0
LINE
8
0
10
100.651001
20
30.201064
11
101.045153
21
30.098587
0
LINE
8
0
10
101.045153
20
30.098587
11
101.352738
21
30.298008
0
LINE
8
0
10
101.352738
20
30.298008
11
101.460006
21
30.648538
0
LINE
8
0
10
101.460006
20
30.648538
11
101.253213
21
30.999391
0
LINE
8
0
10
101.253213
20
30.999391
11
100.336661
21
31.786909
0
LINE
8
0
10
100.336661
20
31.786909
11
99.536573
21
32.673161
0
LINE
8
0
10
99.536573
20
32.673161
11
98.308921
21
34.690353
0
LINE
8
0
10
98.308921
20
34.690353
11
97.616526
21
36.947952
0
LINE
8
0
10
97.616526
20
36.947952
11
97.485509
21
38.134710
0
LINE
8
0
10
97.485509
20
38.134710
11
97.505656
21
39.342939
0
LINE
8
0
10
97.505656
20
39.342939
11
97.505847
21
39.345585
0
LINE
8
0
10
97.505847
20
39.345585
11
97.874868
21
42.765387
0
LINE
8
0
10
97.874868
20
42.765387
11
98.461292
21
46.143859
0
LINE
8
0
10
98.461292
20
46.143859
11
99.261659
21
49.470969
0
LINE
8
0
10
99.261659
20
49.470969
11
100.272508
21
52.736689
0
LINE
8
0
10
100.272508
20
52.736689
11
101.490381
21
55.930987
0
LINE
8
0
10
101.490381
20
55.930987
11
102.911816
21
59.043834
0
LINE
8
0
10
102.911816
20
59.043834
11
104.533354
21
62.065201
0
LINE
8
0
10
104.533354
20
62.065201
11
106.351534
21
64.985056
0
LINE
8
0
10
106.351534
20
64.985056
11
106.351534
21
64.984971
0
LINE
8
0
10
91.656933
20
57.742964
11
95.855221
21
63.215316
0
LINE
8
0
10
95.855221
20
63.215316
11
100.337221
21
68.451332
0
LINE
8
0
10
100.337221
20
68.451332
11
105.092988
21
73.440006
0
LINE
8
0
10
105.092988
20
73.440006
11
110.112579
21
78.170330
0
LINE
8
0
10
110.112579
20
78.170330
11
110.341795
21
78.646797
0
LINE
8
0
10
110.341795
20
78.646797
11
110.165271
21
79.088845
0
LINE
8
0
10
110.165271
20
79.088845
11
109.745924
21
79.314045
0
LINE
8
0
10
109.745924
20
79.314045
11
109.246667
21
79.139963
0
LINE
8
0
10
109.246667
20
79.139963
11
104.171049
21
74.356563
0
LINE
8
0
10
104.171049
20
74.356563
11
99.362513
21
69.311660
0
LINE
8
0
10
99.362513
20
69.311660
11
94.831134
21
64.016410
0
LINE
8
0
10
94.831134
20
64.016410
11
90.586991
21
58.481966
0
LINE
8
0
10
90.586991
20
58.481966
11
90.554363
21
58.432346
0
LINE
8
0
10
90.554363
20
58.432346
11
89.345882
21
56.233414
0
LINE
8
0
10
89.345882
20
56.233414
11
88.290514
21
53.966282
0
LINE
8
0
10
88.290514
20
53.966282
11
87.390475
21
51.638990
0
LINE
8
0
10
87.390475
20
51.638990
11
86.647985
21
49.259576
0
LINE
8
0
10
86.647985
20
49.259576
11
86.065261
21
46.836079
0
LINE
8
0
10
86.065261
20
46.836079
11
85.644521
21
44.376539
0
LINE
8
0
10
85.644521
20
44.376539
11
85.387984
21
41.888995
0
LINE
8
0
10
85.387984
20
41.888995
11
85.297868
21
39.381486
0
LINE
8
0
10
85.297868
20
39.381486
11
85.499800
21
38.893486
0
LINE
8
0
10
85.499800
20
38.893486
11
85.946272
21
38.729886
0
LINE
8
0
10
85.946272
20
38.729886
11
86.393542
21
38.891285
0
LINE
8
0
10
86.393542
20
38.891285
11
86.597865
21
39.378285
0
LINE
8
0
10
86.597865
20
39.378285
11
86.684596
21
41.795095
0
LINE
8
0
10
86.684596
20
41.795095
11
86.931484
21
44.192720
0
LINE
8
0
10
86.931484
20
44.192720
11
87.336401
21
46.563434
0
LINE
8
0
10
87.336401
20
46.563434
11
87.897219
21
48.899513
0
LINE
8
0
10
87.897219
20
48.899513
11
88.611809
21
51.193230
0
LINE
8
0
10
88.611809
20
51.193230
11
89.478044
21
53.436860
0
LINE
8
0
10
89.478044
20
53.436860
11
90.493794
21
55.622678
0
LINE
8
0
10
90.493794
20
55.622678
11
91.656933
21
57.742959
0
LINE
8
0
10
91.656933
20
57.742959
11
91.656933
21
57.742964
0
LINE
8
0
10
129.771297
20
47.801059
11
129.928422
21
48.174960
0
LINE
8
0
10
129.928422
20
48.174960
11
129.776884
21
48.507271
0
LINE
8
0
10
129.776884
20
48.507271
11
129.447400
21
48.664861
0
LINE
8
0
10
129.447400
20
48.664861
11
129.070689
21
48.514600
0
LINE
8
0
10
129.070689
20
48.514600
11
127.430418
21
46.678357
0
LINE
8
0
10
127.430418
20
46.678357
11
126.049188
21
44.652652
0
LINE
8
0
10
126.049188
20
44.652652
11
124.942999
21
42.464589
0
LINE
8
0
10
124.942999
20
42.464589
11
124.127850
21
40.141270
0
LINE
8
0
10
124.127850
20
40.141270
11
122.950796
21
37.632290
0
LINE
8
0
10
122.950796
20
37.632290
11
121.541481
21
35.253420
0
LINE
8
0
10
121.541481
20
35.253420
11
119.910482
21
33.020703
0
LINE
8
0
10
119.910482
20
33.020703
11
118.068373
21
30.950178
0
LINE
8
0
10
118.068373
20
30.950178
11
117.918691
21
30.573379
0
LINE
8
0
10
117.918691
20
30.573379
11
118.076597
21
30.244165
0
LINE
8
0
10
118.076597
20
30.244165
11
118.408955
21
30.092989
0
LINE
8
0
10
118.408955
20
30.092989
11
118.782630
21
30.250303
0
LINE
8
0
10
118.782630
20
30.250303
11
120.693524
21
32.398696
0
LINE
8
0
10
120.693524
20
32.398696
11
122.384757
21
34.715739
0
LINE
8
0
10
122.384757
20
34.715739
11
123.845311
21
37.184695
0
LINE
8
0
10
123.845311
20
37.184695
11
125.064161
21
39.788827
0
LINE
8
0
10
125.064161
20
39.788827
11
125.083449
21
39.845136
0
LINE
8
0
10
125.083449
20
39.845136
11
125.854567
21
42.052851
0
LINE
8
0
10
125.854567
20
42.052851
11
126.903093
21
44.132018
0
LINE
8
0
10
126.903093
20
44.132018
11
128.213760
21
46.056725
0
LINE
8
0
10
128.213760
20
46.056725
11
129.771299
21
47.801059
0
LINE
8
0
10
129.771299
20
47.801059
11
129.771297
21
47.801059
0
LINE
8
0
10
102.050428
20
34.725921
11
103.423770
21
44.277526
0
LINE
8
0
10
103.423770
20
44.277526
11
103.322478
21
44.671036
0
LINE
8
0
10
103.322478
20
44.671036
11
103.000016
21
44.843743
0
LINE
8
0
10
103.000016
20
44.843743
11
102.641974
21
44.768990
0
LINE
8
0
10
102.641974
20
44.768990
11
102.433943
21
44.420120
0
LINE
8
0
10
102.433943
20
44.420120
11
101.060615
21
34.868515
0
LINE
8
0
10
101.060615
20
34.868515
11
101.161904
21
34.474930
0
LINE
8
0
10
101.161904
20
34.474930
11
101.484365
21
34.302197
0
LINE
8
0
10
101.484365
20
34.302197
11
101.842403
21
34.376975
0
LINE
8
0
10
101.842403
20
34.376975
11
102.050428
21
34.725921
0
LINE
8
0
10
102.050428
20
34.725921
11
102.050428
21
34.725921
0
LINE
8
0
10
109.188806
20
53.265302
11
109.188806
21
25.761838
0
LINE
8
0
10
109.188806
20
25.761838
11
109.018660
21
24.951603
0
LINE
8
0
10
109.018660
20
24.951603
11
108.703233
21
24.211588
0
LINE
8
0
10
108.703233
20
24.211588
11
107.705000
21
22.999165
0
LINE
8
0
10
107.705000
20
22.999165
11
106.331038
21
22.238459
0
LINE
8
0
10
106.331038
20
22.238459
11
105.545950
21
22.063091
0
LINE
8
0
10
105.545950
20
22.063091
11
104.718279
21
22.043362
0
LINE
8
0
10
104.718279
20
22.043362
11
103.902673
21
22.185551
0
LINE
8
0
10
103.902673
20
22.185551
11
103.152250
21
22.475350
0
LINE
8
0
10
103.152250
20
22.475350
11
101.906218
21
23.431308
0
LINE
8
0
10
101.906218
20
23.431308
11
101.098720
21
24.778302
0
LINE
8
0
10
101.098720
20
24.778302
11
100.896464
21
25.556895
0
LINE
8
0
10
100.896464
20
25.556895
11
100.848292
21
26.383396
0
LINE
8
0
10
100.848292
20
26.383396
11
100.706936
21
26.763927
0
LINE
8
0
10
100.706936
20
26.763927
11
100.368669
21
26.902429
0
LINE
8
0
10
100.368669
20
26.902429
11
100.020414
21
26.791416
0
LINE
8
0
10
100.020414
20
26.791416
11
99.849095
21
26.423401
0
LINE
8
0
10
99.849095
20
26.423401
11
99.909101
21
25.397276
0
LINE
8
0
10
99.909101
20
25.397276
11
100.160752
21
24.430884
0
LINE
8
0
10
100.160752
20
24.430884
11
100.585552
21
23.544906
0
LINE
8
0
10
100.585552
20
23.544906
11
101.165004
21
22.760021
0
LINE
8
0
10
101.165004
20
22.760021
11
101.880611
21
22.096912
0
LINE
8
0
10
101.880611
20
22.096912
11
102.713876
21
21.576258
0
LINE
8
0
10
102.713876
20
21.576258
11
103.646305
21
21.218739
0
LINE
8
0
10
103.646305
20
21.218739
11
104.659399
21
21.045037
0
LINE
8
0
10
104.659399
20
21.045037
11
105.686901
21
21.072787
0
LINE
8
0
10
105.686901
20
21.072787
11
106.660718
21
21.293965
0
LINE
8
0
10
106.660718
20
21.293965
11
107.559600
21
21.690733
0
LINE
8
0
10
107.559600
20
21.690733
11
108.362294
21
22.245252
0
LINE
8
0
10
108.362294
20
22.245252
11
109.047549
21
22.939684
0
LINE
8
0
10
109.047549
20
22.939684
11
109.594113
21
23.756191
0
LINE
8
0
10
109.594113
20
23.756191
11
109.980735
21
24.676935
0
LINE
8
0
10
109.980735
20
24.676935
11
110.186164
21
25.684077
0
LINE
8
0
10
110.186164
20
25.684077
11
110.188810
21
25.735380
0
LINE
8
0
10
110.188810
20
25.735380
11
110.188808
21
53.265302
0
LINE
8
0
10
110.188808
20
53.265302
11
110.032559
21
53.640326
0
LINE
8
0
10
110.032559
20
53.640326
11
109.688810
21
53.765334
0
LINE
8
0
10
109.688810
20
53.765334
11
109.345061
21
53.640326
0
LINE
8
0
10
109.345061
20
53.640326
11
109.188811
21
53.265302
0
LINE
8
0
10
109.188811
20
53.265302
11
109.188806
21
53.265302
0
LINE
8
0
10
124.201285
20
22.222405
11
123.189257
21
22.150022
0
LINE
8
0
10
123.189257
20
22.150022
11
122.212541
21
22.275879
0
LINE
8
0
10
122.212541
20
22.275879
11
121.294270
21
22.583795
0
LINE
8
0
10
121.294270
20
22.583795
11
120.457577
21
23.057588
0
LINE
8
0
10
120.457577
20
23.057588
11
119.725596
21
23.681077
0
LINE
8
0
10
119.725596
20
23.681077
11
119.121460
21
24.438081
0
LINE
8
0
10
119.121460
20
24.438081
11
118.668303
21
25.312419
0
LINE
8
0
10
118.668303
20
25.312419
11
118.389259
21
26.287908
0
LINE
8
0
10
118.389259
20
26.287908
11
118.502534
21
26.803746
0
LINE
8
0
10
118.502534
20
26.803746
11
118.913425
21
27.043061
0
LINE
8
0
10
118.913425
20
27.043061
11
119.382062
21
26.962545
0
LINE
8
0
10
119.382062
20
26.962545
11
119.668573
21
26.518889
0
LINE
8
0
10
119.668573
20
26.518889
11
119.874990
21
25.796753
0
LINE
8
0
10
119.874990
20
25.796753
11
120.210090
21
25.149257
0
LINE
8
0
10
120.210090
20
25.149257
11
121.198164
21
24.126027
0
LINE
8
0
10
121.198164
20
24.126027
11
122.496449
21
23.544876
0
LINE
8
0
10
122.496449
20
23.544876
11
123.219313
21
23.449978
0
LINE
8
0
10
123.219313
20
23.449978
11
123.968600
21
23.501479
0
LINE
8
0
10
123.968600
20
23.501479
11
128.197709
21
24.530021
0
LINE
8
0
10
128.197709
20
24.530021
11
132.349739
21
25.820989
0
LINE
8
0
10
132.349739
20
25.820989
11
136.412497
21
27.370168
0
LINE
8
0
10
136.412497
20
27.370168
11
140.373794
21
29.173345
0
LINE
8
0
10
140.373794
20
29.173345
11
140.388346
21
29.180224
0
LINE
8
0
10
140.388346
20
29.180224
11
141.597222
21
29.912916
0
LINE
8
0
10
141.597222
20
29.912916
11
142.577825
21
30.858427
0
LINE
8
0
10
142.577825
20
30.858427
11
143.317319
21
31.970490
0
LINE
8
0
10
143.317319
20
31.970490
11
143.802867
21
33.202834
0
LINE
8
0
10
143.802867
20
33.202834
11
144.021632
21
34.509192
0
LINE
8
0
10
144.021632
20
34.509192
11
143.960780
21
35.843294
0
LINE
8
0
10
143.960780
20
35.843294
11
143.607471
21
37.158872
0
LINE
8
0
10
143.607471
20
37.158872
11
142.948871
21
38.409657
0
LINE
8
0
10
142.948871
20
38.409657
11
142.939876
21
38.423283
0
LINE
8
0
10
142.939876
20
38.423283
11
141.263311
21
41.196594
0
LINE
8
0
10
141.263311
20
41.196594
11
139.741452
21
44.049779
0
LINE
8
0
10
139.741452
20
44.049779
11
138.376734
21
46.976294
0
LINE
8
0
10
138.376734
20
46.976294
11
137.171590
21
49.969592
0
LINE
8
0
10
137.171590
20
49.969592
11
136.128454
21
53.023126
0
LINE
8
0
10
136.128454
20
53.023126
11
135.249761
21
56.130350
0
LINE
8
0
10
135.249761
20
56.130350
11
134.537945
21
59.284719
0
LINE
8
0
10
134.537945
20
59.284719
11
133.995438
21
62.479685
0
LINE
8
0
10
133.995438
20
62.479685
11
134.127584
21
62.990527
0
LINE
8
0
10
134.127584
20
62.990527
11
134.547020
21
63.214204
0
LINE
8
0
10
134.547020
20
63.214204
11
135.012426
21
63.116390
0
LINE
8
0
10
135.012426
20
63.116390
11
135.282481
21
62.662758
0
LINE
8
0
10
135.282481
20
62.662758
11
135.813085
21
59.537725
0
LINE
8
0
10
135.813085
20
59.537725
11
136.509243
21
56.452383
0
LINE
8
0
10
136.509243
20
56.452383
11
137.368575
21
53.413132
0
LINE
8
0
10
137.368575
20
53.413132
11
138.388702
21
50.426370
0
LINE
8
0
10
138.388702
20
50.426370
11
139.567247
21
47.498498
0
LINE
8
0
10
139.567247
20
47.498498
11
140.901829
21
44.635914
0
LINE
8
0
10
140.901829
20
44.635914
11
142.390071
21
41.845017
0
LINE
8
0
10
142.390071
20
41.845017
11
144.029593
21
39.132206
0
LINE
8
0
10
144.029593
20
39.132206
11
144.821896
21
37.623989
0
LINE
8
0
10
144.821896
20
37.623989
11
145.246696
21
36.038004
0
LINE
8
0
10
145.246696
20
36.038004
11
145.319428
21
34.429879
0
LINE
8
0
10
145.319428
20
34.429879
11
145.055523
21
32.855242
0
LINE
8
0
10
145.055523
20
32.855242
11
144.470416
21
31.369718
0
LINE
8
0
10
144.470416
20
31.369718
11
143.579540
21
30.028935
0
LINE
8
0
10
143.579540
20
30.028935
11
142.398328
21
28.888521
0
LINE
8
0
10
142.398328
20
28.888521
11
140.942213
21
28.004102
0
LINE
8
0
10
140.942213
20
28.004102
11
136.905302
21
26.167095
0
LINE
8
0
10
136.905302
20
26.167095
11
132.765004
21
24.588987
0
LINE
8
0
10
132.765004
20
24.588987
11
128.533751
21
23.274071
0
LINE
8
0
10
128.533751
20
23.274071
11
124.223973
21
22.226641
0
LINE
8
0
10
124.223973
20
22.226641
11
124.201272
21
22.222408
0
LINE
8
0
10
124.201272
20
22.222408
11
124.201285
21
22.222405
0
LINE
8
0
10
155.346622
20
131.588408
11
154.199452
21
131.278157
0
LINE
8
0
10
154.199452
20
131.278157
11
153.046000
21
131.192729
0
LINE
8
0
10
153.046000
20
131.192729
11
151.914259
21
131.320711
0
LINE
8
0
10
151.914259
20
131.320711
11
150.832221
21
131.650692
0
LINE
8
0
10
150.832221
20
131.650692
11
149.827880
21
132.171260
0
LINE
8
0
10
149.827880
20
132.171260
11
148.929227
21
132.871004
0
LINE
8
0
10
148.929227
20
132.871004
11
148.164256
21
133.738512
0
LINE
8
0
10
148.164256
20
133.738512
11
147.560958
21
134.762372
0
LINE
8
0
10
147.560958
20
134.762372
11
147.260641
21
135.035289
0
LINE
8
0
10
147.260641
20
135.035289
11
146.896660
21
135.002971
0
LINE
8
0
10
146.896660
20
135.002971
11
146.638331
21
134.744528
0
LINE
8
0
10
146.638331
20
134.744528
11
146.654973
21
134.339068
0
LINE
8
0
10
146.654973
20
134.339068
11
147.363399
21
133.139197
0
LINE
8
0
10
147.363399
20
133.139197
11
148.262570
21
132.124921
0
LINE
8
0
10
148.262570
20
132.124921
11
149.319001
21
131.309633
0
LINE
8
0
10
149.319001
20
131.309633
11
150.499205
21
130.706722
0
LINE
8
0
10
150.499205
20
130.706722
11
151.769696
21
130.329582
0
LINE
8
0
10
151.769696
20
130.329582
11
153.096987
21
130.191602
0
LINE
8
0
10
153.096987
20
130.191602
11
154.447592
21
130.306176
0
LINE
8
0
10
154.447592
20
130.306176
11
155.788026
21
130.686693
0
LINE
8
0
10
155.788026
20
130.686693
11
155.933322
21
130.774466
0
LINE
8
0
10
155.933322
20
130.774466
11
157.256109
21
131.615911
0
LINE
8
0
10
157.256109
20
131.615911
11
158.669139
21
131.999671
0
LINE
8
0
10
158.669139
20
131.999671
11
160.089408
21
131.964266
0
LINE
8
0
10
160.089408
20
131.964266
11
161.433911
21
131.548218
0
LINE
8
0
10
161.433911
20
131.548218
11
162.619642
21
130.790046
0
LINE
8
0
10
162.619642
20
130.790046
11
163.563597
21
129.728271
0
LINE
8
0
10
163.563597
20
129.728271
11
164.182772
21
128.401414
0
LINE
8
0
10
164.182772
20
128.401414
11
164.394160
21
126.847996
0
LINE
8
0
10
164.394160
20
126.847996
11
164.546187
21
126.471828
0
LINE
8
0
10
164.546187
20
126.471828
11
164.888033
21
126.342887
0
LINE
8
0
10
164.888033
20
126.342887
11
165.232923
21
126.463451
0
LINE
8
0
10
165.232923
20
126.463451
11
165.394082
21
126.835798
0
LINE
8
0
10
165.394082
20
126.835798
11
165.144863
21
128.679871
0
LINE
8
0
10
165.144863
20
128.679871
11
164.414019
21
130.258564
0
LINE
8
0
10
164.414019
20
130.258564
11
163.298546
21
131.525995
0
LINE
8
0
10
163.298546
20
131.525995
11
161.895442
21
132.436284
0
LINE
8
0
10
161.895442
20
132.436284
11
160.301701
21
132.943550
0
LINE
8
0
10
160.301701
20
132.943550
11
158.614320
21
133.001913
0
LINE
8
0
10
158.614320
20
133.001913
11
156.930295
21
132.565492
0
LINE
8
0
10
156.930295
20
132.565492
11
155.346622
21
131.588405
0
LINE
8
0
10
155.346622
20
131.588405
11
155.346622
21
131.588408
0
LINE
8
0
10
136.522616
20
150.789280
11
135.504943
21
151.981814
0
LINE
8
0
10
135.504943
20
151.981814
11
134.266707
21
152.763286
0
LINE
8
0
10
134.266707
20
152.763286
11
132.898562
21
153.146167
0
LINE
8
0
10
132.898562
20
153.146167
11
131.491163
21
153.142927
0
LINE
8
0
10
131.491163
20
153.142927
11
130.135163
21
152.766035
0
LINE
8
0
10
130.135163
20
152.766035
11
128.921216
21
152.027964
0
LINE
8
0
10
128.921216
20
152.027964
11
127.939976
21
150.941182
0
LINE
8
0
10
127.939976
20
150.941182
11
127.282097
21
149.518160
0
LINE
8
0
10
127.282097
20
149.518160
11
127.207321
21
149.365771
0
LINE
8
0
10
127.207321
20
149.365771
11
126.285399
21
148.320966
0
LINE
8
0
10
126.285399
20
148.320966
11
125.211140
21
147.494387
0
LINE
8
0
10
125.211140
20
147.494387
11
124.019954
21
146.892875
0
LINE
8
0
10
124.019954
20
146.892875
11
122.747251
21
146.523266
0
LINE
8
0
10
122.747251
20
146.523266
11
121.428442
21
146.392400
0
LINE
8
0
10
121.428442
20
146.392400
11
120.098937
21
146.507115
0
LINE
8
0
10
120.098937
20
146.507115
11
118.794148
21
146.874249
0
LINE
8
0
10
118.794148
20
146.874249
11
117.549483
21
147.500641
0
LINE
8
0
10
117.549483
20
147.500641
11
117.316165
21
147.832749
0
LINE
8
0
10
117.316165
20
147.832749
11
117.393758
21
148.189887
0
LINE
8
0
10
117.393758
20
148.189887
11
117.682539
21
148.413883
0
LINE
8
0
10
117.682539
20
148.413883
11
118.082790
21
148.346560
0
LINE
8
0
10
118.082790
20
148.346560
11
119.143856
21
147.811402
0
LINE
8
0
10
119.143856
20
147.811402
11
120.256401
21
147.495182
0
LINE
8
0
10
120.256401
20
147.495182
11
121.390706
21
147.392368
0
LINE
8
0
10
121.390706
20
147.392368
11
122.517052
21
147.497426
0
LINE
8
0
10
122.517052
20
147.497426
11
123.605722
21
147.804821
0
LINE
8
0
10
123.605722
20
147.804821
11
124.626996
21
148.309021
0
LINE
8
0
10
124.626996
20
148.309021
11
125.551157
21
149.004491
0
LINE
8
0
10
125.551157
20
149.004491
11
126.348484
21
149.885698
0
LINE
8
0
10
126.348484
20
149.885698
11
127.152501
21
151.563873
0
LINE
8
0
10
127.152501
20
151.563873
11
128.333246
21
152.841467
0
LINE
8
0
10
128.333246
20
152.841467
11
129.784314
21
153.704636
0
LINE
8
0
10
129.784314
20
153.704636
11
131.399303
21
154.139538
0
LINE
8
0
10
131.399303
20
154.139538
11
133.071809
21
154.132330
0
LINE
8
0
10
133.071809
20
154.132330
11
134.695429
21
153.669170
0
LINE
8
0
10
134.695429
20
153.669170
11
136.163760
21
152.736213
0
LINE
8
0
10
136.163760
20
152.736213
11
137.370398
21
151.319619
0
LINE
8
0
10
137.370398
20
151.319619
11
137.437582
21
150.918363
0
LINE
8
0
10
137.437582
20
150.918363
11
137.212248
21
150.629643
0
LINE
8
0
10
137.212248
20
150.629643
11
136.854044
21
150.553326
0
LINE
8
0
10
136.854044
20
150.553326
11
136.522616
21
150.789280
0
LINE
8
0
10
136.522616
20
150.789280
11
136.522616
21
150.789280
0
LINE
8
0
10
93.065028
20
149.627713
11
93.045554
21
149.796338
0
LINE
8
0
10
93.045554
20
149.796338
11
92.829652
21
151.349136
0
LINE
8
0
10
92.829652
20
151.349136
11
93.067563
21
152.793894
0
LINE
8
0
10
93.067563
20
152.793894
11
93.689768
21
154.071109
0
LINE
8
0
10
93.689768
20
154.071109
11
94.626744
21
155.121279
0
LINE
8
0
10
94.626744
20
155.121279
11
95.808972
21
155.884902
0
LINE
8
0
10
95.808972
20
155.884902
11
97.166929
21
156.302477
0
LINE
8
0
10
97.166929
20
156.302477
11
98.631096
21
156.314502
0
LINE
8
0
10
98.631096
20
156.314502
11
100.131950
21
155.861474
0
LINE
8
0
10
100.131950
20
155.861474
11
100.537269
21
155.843513
0
LINE
8
0
10
100.537269
20
155.843513
11
100.796558
21
156.100898
0
LINE
8
0
10
100.796558
20
156.100898
11
100.830161
21
156.464695
0
LINE
8
0
10
100.830161
20
156.464695
11
100.558426
21
156.765970
0
LINE
8
0
10
100.558426
20
156.765970
11
98.777468
21
157.305327
0
LINE
8
0
10
98.777468
20
157.305327
11
97.037836
21
157.296340
0
LINE
8
0
10
97.037836
20
157.296340
11
95.421556
21
156.808181
0
LINE
8
0
10
95.421556
20
156.808181
11
94.010657
21
155.910020
0
LINE
8
0
10
94.010657
20
155.910020
11
92.887168
21
154.671028
0
LINE
8
0
10
92.887168
20
154.671028
11
92.133116
21
153.160377
0
LINE
8
0
10
92.133116
20
153.160377
11
91.830530
21
151.447238
0
LINE
8
0
10
91.830530
20
151.447238
11
92.061438
21
149.600782
0
LINE
8
0
10
92.061438
20
149.600782
11
91.867099
21
148.428395
0
LINE
8
0
10
91.867099
20
148.428395
11
91.465646
21
147.343690
0
LINE
8
0
10
91.465646
20
147.343690
11
90.879086
21
146.367388
0
LINE
8
0
10
90.879086
20
146.367388
11
90.129430
21
145.520212
0
LINE
8
0
10
90.129430
20
145.520212
11
89.238686
21
144.822883
0
LINE
8
0
10
89.238686
20
144.822883
11
88.228862
21
144.296124
0
LINE
8
0
10
88.228862
20
144.296124
11
87.121969
21
143.960658
0
LINE
8
0
10
87.121969
20
143.960658
11
85.940014
21
143.837206
0
LINE
8
0
10
85.940014
20
143.837206
11
85.566989
21
143.677406
0
LINE
8
0
10
85.566989
20
143.677406
11
85.445182
21
143.332881
0
LINE
8
0
10
85.445182
20
143.332881
11
85.572968
21
142.990530
0
LINE
8
0
10
85.572968
20
142.990530
11
85.948719
21
142.837246
0
LINE
8
0
10
85.948719
20
142.837246
11
87.334448
21
142.983209
0
LINE
8
0
10
87.334448
20
142.983209
11
88.630593
21
143.379779
0
LINE
8
0
10
88.630593
20
143.379779
11
89.811062
21
144.002059
0
LINE
8
0
10
89.811062
20
144.002059
11
90.849762
21
144.825152
0
LINE
8
0
10
90.849762
20
144.825152
11
91.720601
21
145.824161
0
LINE
8
0
10
91.720601
20
145.824161
11
92.397487
21
146.974189
0
LINE
8
0
10
92.397487
20
146.974189
11
92.854330
21
148.250339
0
LINE
8
0
10
92.854330
20
148.250339
11
93.065036
21
149.627713
0
LINE
8
0
10
93.065036
20
149.627713
11
93.065028
21
149.627713
0
LINE
8
0
10
64.093533
20
131.520680
11
63.072399
21
132.710252
0
LINE
8
0
10
63.072399
20
132.710252
11
62.491449
21
134.054285
0
LINE
8
0
10
62.491449
20
134.054285
11
62.324367
21
135.465136
0
LINE
8
0
10
62.324367
20
135.465136
11
62.544837
21
136.855164
0
LINE
8
0
10
62.544837
20
136.855164
11
63.126544
21
138.136725
0
LINE
8
0
10
63.126544
20
138.136725
11
64.043173
21
139.222179
0
LINE
8
0
10
64.043173
20
139.222179
11
65.268407
21
140.023883
0
LINE
8
0
10
65.268407
20
140.023883
11
66.775931
21
140.454195
0
LINE
8
0
10
66.775931
20
140.454195
11
67.127124
21
140.658153
0
LINE
8
0
10
67.127124
20
140.658153
11
67.206205
21
141.015321
0
LINE
8
0
10
67.206205
20
141.015321
11
67.037591
21
141.339797
0
LINE
8
0
10
67.037591
20
141.339797
11
66.645701
21
141.445677
0
LINE
8
0
10
66.645701
20
141.445677
11
64.855864
21
140.936555
0
LINE
8
0
10
64.855864
20
140.936555
11
63.397249
21
139.988478
0
LINE
8
0
10
63.397249
20
139.988478
11
62.301467
21
138.703985
0
LINE
8
0
10
62.301467
20
138.703985
11
61.600126
21
137.185614
0
LINE
8
0
10
61.600126
20
137.185614
11
61.324836
21
135.535903
0
LINE
8
0
10
61.324836
20
135.535903
11
61.507207
21
133.857391
0
LINE
8
0
10
61.507207
20
133.857391
11
62.178850
21
132.252616
0
LINE
8
0
10
62.178850
20
132.252616
11
63.371372
21
130.824117
0
LINE
8
0
10
63.371372
20
130.824117
11
63.841724
21
129.732776
0
LINE
8
0
10
63.841724
20
129.732776
11
64.090436
21
128.603221
0
LINE
8
0
10
64.090436
20
128.603221
11
64.124819
21
127.464786
0
LINE
8
0
10
64.124819
20
127.464786
11
63.952187
21
126.346800
0
LINE
8
0
10
63.952187
20
126.346800
11
63.579849
21
125.278597
0
LINE
8
0
10
63.579849
20
125.278597
11
63.015119
21
124.289508
0
LINE
8
0
10
63.015119
20
124.289508
11
62.265307
21
123.408864
0
LINE
8
0
10
62.265307
20
123.408864
11
61.337727
21
122.665997
0
LINE
8
0
10
61.337727
20
122.665997
11
61.110425
21
122.329907
0
LINE
8
0
10
61.110425
20
122.329907
11
61.194214
21
121.974283
0
LINE
8
0
10
61.194214
20
121.974283
11
61.486742
21
121.755386
0
LINE
8
0
10
61.486742
20
121.755386
11
61.885659
21
121.829478
0
LINE
8
0
10
61.885659
20
121.829478
11
62.972497
21
122.701452
0
LINE
8
0
10
62.972497
20
122.701452
11
63.848483
21
123.735818
0
LINE
8
0
10
63.848483
20
123.735818
11
64.505126
21
124.897523
0
LINE
8
0
10
64.505126
20
124.897523
11
64.933939
21
126.151517
0
LINE
8
0
10
64.933939
20
126.151517
11
65.126431
21
127.462749
0
LINE
8
0
10
65.126431
20
127.462749
11
65.074112
21
128.796166
0
LINE
8
0
10
65.074112
20
128.796166
11
64.768494
21
130.116719
0
LINE
8
0
10
64.768494
20
130.116719
11
64.201086
21
131.389356
0
LINE
8
0
10
64.201086
20
131.389356
11
64.093533
21
131.520680
0
LINE
8
0
10
64.093533
20
131.520680
11
64.093533
21
131.520680
0
LINE
8
0
10
82.504782
20
32.159852
11
80.212129
21
32.659013
0
LINE
8
0
10
80.212129
20
32.659013
11
77.993694
21
33.401810
0
LINE
8
0
10
77.993694
20
33.401810
11
75.868795
21
34.380587
0
LINE
8
0
10
75.868795
20
34.380587
11
73.856749
21
35.587689
0
LINE
8
0
10
73.856749
20
35.587689
11
73.458692
21
35.667930
0
LINE
8
0
10
73.458692
20
35.667930
11
73.162570
21
35.453104
0
LINE
8
0
10
73.162570
20
35.453104
11
73.073448
21
35.098508
0
LINE
8
0
10
73.073448
20
35.098508
11
73.296394
21
34.759438
0
LINE
8
0
10
73.296394
20
34.759438
11
75.401758
21
33.496350
0
LINE
8
0
10
75.401758
20
33.496350
11
77.625209
21
32.472175
0
LINE
8
0
10
77.625209
20
32.472175
11
79.946535
21
31.694925
0
LINE
8
0
10
79.946535
20
31.694925
11
82.345522
21
31.172613
0
LINE
8
0
10
82.345522
20
31.172613
11
82.740620
21
31.267145
0
LINE
8
0
10
82.740620
20
31.267145
11
82.918770
21
31.586600
0
LINE
8
0
10
82.918770
20
31.586600
11
82.850111
21
31.945871
0
LINE
8
0
10
82.850111
20
31.945871
11
82.504782
21
32.159852
0
LINE
8
0
10
82.504782
20
32.159852
11
82.504782
21
32.159852
0
LINE
8
0
10
47.044871
20
109.459143
11
47.229890
21
109.820448
0
LINE
8
0
10
47.229890
20
109.820448
11
47.103458
21
110.163395
0
LINE
8
0
10
47.103458
20
110.163395
11
46.786334
21
110.345136
0
LINE
8
0
10
46.786334
20
110.345136
11
46.399278
21
110.222822
0
LINE
8
0
10
46.399278
20
110.222822
11
45.168824
21
108.826863
0
LINE
8
0
10
45.168824
20
108.826863
11
44.454328
21
107.240704
0
LINE
8
0
10
44.454328
20
107.240704
11
44.226946
21
105.567695
0
LINE
8
0
10
44.226946
20
105.567695
11
44.457834
21
103.911187
0
LINE
8
0
10
44.457834
20
103.911187
11
45.118146
21
102.374529
0
LINE
8
0
10
45.118146
20
102.374529
11
46.179038
21
101.061072
0
LINE
8
0
10
46.179038
20
101.061072
11
47.611666
21
100.074166
0
LINE
8
0
10
47.611666
20
100.074166
11
49.387184
21
99.517162
0
LINE
8
0
10
49.387184
20
99.517162
11
50.372893
21
98.853359
0
LINE
8
0
10
50.372893
20
98.853359
11
51.192806
21
98.037581
0
LINE
8
0
10
51.192806
20
98.037581
11
51.837216
21
97.098458
0
LINE
8
0
10
51.837216
20
97.098458
11
52.296416
21
96.064617
0
LINE
8
0
10
52.296416
20
96.064617
11
52.560701
21
94.964686
0
LINE
8
0
10
52.560701
20
94.964686
11
52.620362
21
93.827295
0
LINE
8
0
10
52.620362
20
93.827295
11
52.465693
21
92.681072
0
LINE
8
0
10
52.465693
20
92.681072
11
52.086987
21
91.554645
0
LINE
8
0
10
52.086987
20
91.554645
11
52.076866
21
91.148521
0
LINE
8
0
10
52.076866
20
91.148521
11
52.339845
21
90.894295
0
LINE
8
0
10
52.339845
20
90.894295
11
52.704697
21
90.868370
0
LINE
8
0
10
52.704697
20
90.868370
11
53.000195
21
91.147153
0
LINE
8
0
10
53.000195
20
91.147153
11
53.443076
21
92.468293
0
LINE
8
0
10
53.443076
20
92.468293
11
53.620782
21
93.812050
0
LINE
8
0
10
53.620782
20
93.812050
11
53.545121
21
95.144348
0
LINE
8
0
10
53.545121
20
95.144348
11
53.227900
21
96.431108
0
LINE
8
0
10
53.227900
20
96.431108
11
52.680930
21
97.638256
0
LINE
8
0
10
52.680930
20
97.638256
11
51.916016
21
98.731713
0
LINE
8
0
10
51.916016
20
98.731713
11
50.944969
21
99.677403
0
LINE
8
0
10
50.944969
20
99.677403
11
49.779595
21
100.441250
0
LINE
8
0
10
49.779595
20
100.441250
11
49.618115
21
100.493579
0
LINE
8
0
10
49.618115
20
100.493579
11
48.115952
21
100.942245
0
LINE
8
0
10
48.115952
20
100.942245
11
46.900588
21
101.758832
0
LINE
8
0
10
46.900588
20
101.758832
11
45.997266
21
102.855384
0
LINE
8
0
10
45.997266
20
102.855384
11
45.431232
21
104.143944
0
LINE
8
0
10
45.431232
20
104.143944
11
45.227731
21
105.536557
0
LINE
8
0
10
45.227731
20
105.536557
11
45.412007
21
106.945265
0
LINE
8
0
10
45.412007
20
106.945265
11
46.009306
21
108.282113
0
LINE
8
0
10
46.009306
20
108.282113
11
47.044871
21
109.459143
0
LINE
8
0
10
47.044871
20
109.459143
11
47.044871
21
109.459143
0
LINE
8
0
10
54.548757
20
65.619656
11
55.736867
21
65.594143
0
LINE
8
0
10
55.736867
20
65.594143
11
56.867665
21
65.351145
0
LINE
8
0
10
56.867665
20
65.351145
11
57.917507
21
64.909498
0
LINE
8
0
10
57.917507
20
64.909498
11
58.862748
21
64.288038
0
LINE
8
0
10
58.862748
20
64.288038
11
59.679745
21
63.505600
0
LINE
8
0
10
59.679745
20
63.505600
11
60.344855
21
62.581021
0
LINE
8
0
10
60.344855
20
62.581021
11
60.834434
21
61.533135
0
LINE
8
0
10
60.834434
20
61.533135
11
61.124838
21
60.380780
0
LINE
8
0
10
61.124838
20
60.380780
11
61.336143
21
60.033999
0
LINE
8
0
10
61.336143
20
60.033999
11
61.694904
21
59.962421
0
LINE
8
0
10
61.694904
20
59.962421
11
62.015768
21
60.137751
0
LINE
8
0
10
62.015768
20
60.137751
11
62.113383
21
60.531693
0
LINE
8
0
10
62.113383
20
60.531693
11
61.771697
21
61.882547
0
LINE
8
0
10
61.771697
20
61.882547
11
61.194703
21
63.109063
0
LINE
8
0
10
61.194703
20
63.109063
11
60.410758
21
64.188957
0
LINE
8
0
10
60.410758
20
64.188957
11
59.448220
21
65.099947
0
LINE
8
0
10
59.448220
20
65.099947
11
58.335445
21
65.819750
0
LINE
8
0
10
58.335445
20
65.819750
11
57.100791
21
66.326081
0
LINE
8
0
10
57.100791
20
66.326081
11
55.772615
21
66.596659
0
LINE
8
0
10
55.772615
20
66.596659
11
54.379273
21
66.609199
0
LINE
8
0
10
54.379273
20
66.609199
11
54.215136
21
66.565918
0
LINE
8
0
10
54.215136
20
66.565918
11
52.708869
21
66.131229
0
LINE
8
0
10
52.708869
20
66.131229
11
51.244959
21
66.161111
0
LINE
8
0
10
51.244959
20
66.161111
11
49.892196
21
66.595217
0
LINE
8
0
10
49.892196
20
66.595217
11
48.719370
21
67.373203
0
LINE
8
0
10
48.719370
20
67.373203
11
47.795271
21
68.434723
0
LINE
8
0
10
47.795271
20
68.434723
11
47.188689
21
69.719431
0
LINE
8
0
10
47.188689
20
69.719431
11
46.968415
21
71.166982
0
LINE
8
0
10
46.968415
20
71.166982
11
47.203237
21
72.717031
0
LINE
8
0
10
47.203237
20
72.717031
11
47.163894
21
73.121372
0
LINE
8
0
10
47.163894
20
73.121372
11
46.871951
21
73.341731
0
LINE
8
0
10
46.871951
20
73.341731
11
46.506654
21
73.323093
0
LINE
8
0
10
46.506654
20
73.323093
11
46.247251
21
73.010443
0
LINE
8
0
10
46.247251
20
73.010443
11
45.966840
21
71.170854
0
LINE
8
0
10
45.966840
20
71.170854
11
46.223311
21
69.450207
0
LINE
8
0
10
46.223311
20
69.450207
11
46.936523
21
67.919851
0
LINE
8
0
10
46.936523
20
67.919851
11
48.026335
21
66.651135
0
LINE
8
0
10
48.026335
20
66.651135
11
49.412605
21
65.715409
0
LINE
8
0
10
49.412605
20
65.715409
11
51.015193
21
65.184020
0
LINE
8
0
10
51.015193
20
65.184020
11
52.753957
21
65.128320
0
LINE
8
0
10
52.753957
20
65.128320
11
54.548757
21
65.619656
0
LINE
8
0
10
54.548757
20
65.619656
11
54.548757
21
65.619656
0
LINE
8
0
10
165.251607
20
66.539563
11
164.492841
21
67.454184
0
LINE
8
0
10
164.492841
20
67.454184
11
163.935972
21
68.467913
0
LINE
8
0
10
163.935972
20
68.467913
11
163.582246
21
69.550547
0
LINE
8
0
10
163.582246
20
69.550547
11
163.432913
21
70.671882
0
LINE
8
0
10
163.432913
20
70.671882
11
163.489221
21
71.801715
0
LINE
8
0
10
163.489221
20
71.801715
11
163.752417
21
72.909842
0
LINE
8
0
10
163.752417
20
72.909842
11
164.223749
21
73.966060
0
LINE
8
0
10
164.223749
20
73.966060
11
164.904466
21
74.940166
0
LINE
8
0
10
164.904466
20
74.940166
11
165.028595
21
75.326989
0
LINE
8
0
10
165.028595
20
75.326989
11
164.847892
21
75.645008
0
LINE
8
0
10
164.847892
20
75.645008
11
164.505123
21
75.772673
0
LINE
8
0
10
164.505123
20
75.772673
11
164.143052
21
75.588434
0
LINE
8
0
10
164.143052
20
75.588434
11
163.345901
21
74.445583
0
LINE
8
0
10
163.345901
20
74.445583
11
162.796812
21
73.206322
0
LINE
8
0
10
162.796812
20
73.206322
11
162.494057
21
71.906675
0
LINE
8
0
10
162.494057
20
71.906675
11
162.435905
21
70.582665
0
LINE
8
0
10
162.435905
20
70.582665
11
162.620628
21
69.270316
0
LINE
8
0
10
162.620628
20
69.270316
11
163.046495
21
68.005650
0
LINE
8
0
10
163.046495
20
68.005650
11
163.711777
21
66.824691
0
LINE
8
0
10
163.711777
20
66.824691
11
164.614745
21
65.763462
0
LINE
8
0
10
164.614745
20
65.763462
11
164.754942
21
65.667759
0
LINE
8
0
10
164.754942
20
65.667759
11
166.069852
21
64.814059
0
LINE
8
0
10
166.069852
20
64.814059
11
167.005926
21
63.688141
0
LINE
8
0
10
167.005926
20
63.688141
11
167.563721
21
62.381513
0
LINE
8
0
10
167.563721
20
62.381513
11
167.743797
21
60.985678
0
LINE
8
0
10
167.743797
20
60.985678
11
167.546711
21
59.592144
0
LINE
8
0
10
167.546711
20
59.592144
11
166.973020
21
58.292415
0
LINE
8
0
10
166.973020
20
58.292415
11
166.023284
21
57.177999
0
LINE
8
0
10
166.023284
20
57.177999
11
164.698060
21
56.340399
0
LINE
8
0
10
164.698060
20
56.340399
11
164.418242
21
56.045880
0
LINE
8
0
10
164.418242
20
56.045880
11
164.442887
21
55.680939
0
LINE
8
0
10
164.442887
20
55.680939
11
164.696190
21
55.417071
0
LINE
8
0
10
164.696190
20
55.417071
11
165.102348
21
55.425767
0
LINE
8
0
10
165.102348
20
55.425767
11
166.676246
21
56.418521
0
LINE
8
0
10
166.676246
20
56.418521
11
167.808672
21
57.739133
0
LINE
8
0
10
167.808672
20
57.739133
11
168.498185
21
59.280312
0
LINE
8
0
10
168.498185
20
59.280312
11
168.743342
21
60.934768
0
LINE
8
0
10
168.743342
20
60.934768
11
168.542704
21
62.595212
0
LINE
8
0
10
168.542704
20
62.595212
11
167.894830
21
64.154353
0
LINE
8
0
10
167.894830
20
64.154353
11
166.798278
21
65.504900
0
LINE
8
0
10
166.798278
20
65.504900
11
165.251607
21
66.539563
0
LINE
8
0
10
165.251607
20
66.539563
11
165.251607
21
66.539563
 0 
ENDSEC
 0 
EOF